<svg xmlns="http://www.w3.org/2000/svg" width="30" height="30" viewBox="0 0 30 30" fill="none">
  <g clip-path="url(#clip0_1694_106830)">
    <path d="M4.74292 24.0842L10.8964 7.16466C10.9488 7.02011 11.0367 6.89112 11.1522 6.78965C11.2677 6.68817 11.4069 6.6175 11.557 6.58419C11.7071 6.55088 11.8631 6.55601 12.0107 6.5991C12.1583 6.64218 12.2926 6.72184 12.4011 6.83068L23.1683 17.5979C23.2768 17.7065 23.3562 17.8408 23.3991 17.9883C23.4419 18.1358 23.4469 18.2917 23.4134 18.4416C23.38 18.5915 23.3093 18.7306 23.2079 18.8459C23.1065 18.9612 22.9776 19.0491 22.8332 19.1014L5.91362 25.2549C5.75023 25.3146 5.57318 25.3263 5.40333 25.2888C5.23347 25.2512 5.07788 25.1659 4.95488 25.0429C4.83187 24.9199 4.74657 24.7643 4.70902 24.5945C4.67147 24.4246 4.68323 24.2476 4.74292 24.0842Z" stroke="#25425D" stroke-linecap="round" stroke-linejoin="round"/>
    <path d="M19.6875 8.4375C19.6875 8.4375 19.6875 5.625 22.5 5.625C25.3125 5.625 25.3125 2.8125 25.3125 2.8125" stroke="#25425D" stroke-linecap="round" stroke-linejoin="round"/>
    <path d="M16.875 1.875V4.6875" stroke="#25425D" stroke-linecap="round" stroke-linejoin="round"/>
    <path d="M25.3125 13.125L27.1875 15" stroke="#25425D" stroke-linecap="round" stroke-linejoin="round"/>
    <path d="M25.3125 9.375L28.125 8.4375" stroke="#25425D" stroke-linecap="round" stroke-linejoin="round"/>
    <path d="M9.14844 11.9648L18.0336 20.85" stroke="#25425D" stroke-linecap="round" stroke-linejoin="round"/>
    <path d="M11.8461 23.1L6.89844 18.1523" stroke="#25425D" stroke-linecap="round" stroke-linejoin="round"/>
    <path d="M20.577 17.0432L18.0915 14.5577L16.8364 13.3026C16.532 12.9983 16.0671 12.9228 15.6821 13.1153L14.8655 13.5236C14.2712 13.8207 14.1266 14.604 14.5755 15.0938L18.0534 18.8878C18.3405 19.201 18.794 19.2986 19.1845 19.1313L20.2633 18.6689C20.9135 18.3902 21.0773 17.5435 20.577 17.0432Z" fill="#A7CDED" fill-opacity="0.5"/>
  </g>
  <defs>
    <clipPath id="clip0_1694_106830">
      <rect width="30" height="30" fill="white"/>
    </clipPath>
  </defs>
</svg>