<svg xmlns="http://www.w3.org/2000/svg" width="30" height="30" viewBox="0 0 30 30" fill="none">
  <g clip-path="url(#clip0_1694_106806)">
    <path d="M17.4742 8.58984L10.6562 12.9727" stroke="#25425D" stroke-linecap="round" stroke-linejoin="round"/>
    <path d="M10.6562 17.0273L17.4742 21.4102" stroke="#25425D" stroke-linecap="round" stroke-linejoin="round"/>
    <path d="M7.5 18.75C9.57107 18.75 11.25 17.0711 11.25 15C11.25 12.9289 9.57107 11.25 7.5 11.25C5.42893 11.25 3.75 12.9289 3.75 15C3.75 17.0711 5.42893 18.75 7.5 18.75Z" stroke="#25425D" stroke-linecap="round" stroke-linejoin="round"/>
    <path d="M20.625 27.1875C22.6961 27.1875 24.375 25.5086 24.375 23.4375C24.375 21.3664 22.6961 19.6875 20.625 19.6875C18.5539 19.6875 16.875 21.3664 16.875 23.4375C16.875 25.5086 18.5539 27.1875 20.625 27.1875Z" stroke="#25425D" stroke-linecap="round" stroke-linejoin="round"/>
    <path d="M20.625 10.3125C22.6961 10.3125 24.375 8.63357 24.375 6.5625C24.375 4.49143 22.6961 2.8125 20.625 2.8125C18.5539 2.8125 16.875 4.49143 16.875 6.5625C16.875 8.63357 18.5539 10.3125 20.625 10.3125Z" stroke="#25425D" stroke-linecap="round" stroke-linejoin="round"/>
    <path d="M22.5326 5.67096C22.5326 6.64558 22.1493 7.05997 21.1746 7.05997C20.2 7.05997 18.9688 6.26989 18.9688 5.29527C18.9688 4.32065 19.7933 3.90625 20.7679 3.90625C21.7425 3.90625 22.5326 4.69634 22.5326 5.67096Z" fill="#A7CDED" fill-opacity="0.5"/>
    <path d="M22.0951 24.7061C22.0951 25.6807 21.7118 26.0951 20.7371 26.0951C19.7625 26.0951 18.5312 25.305 18.5312 24.3304C18.5312 23.3558 19.3558 22.9414 20.3304 22.9414C21.305 22.9414 22.0951 23.7315 22.0951 24.7061Z" fill="#A7CDED" fill-opacity="0.5"/>
  </g>
  <defs>
    <clipPath id="clip0_1694_106806">
      <rect width="30" height="30" fill="white"/>
    </clipPath>
  </defs>
</svg>