<svg xmlns="http://www.w3.org/2000/svg" width="16" height="16" viewBox="0 0 16 16" fill="none">
  <g clip-path="url(#clip0_2690_13829)">
    <path d="M3.40375 12.5962C2.82875 12.0212 3.21 10.8131 2.9175 10.1056C2.61375 9.375 1.5 8.78125 1.5 8C1.5 7.21875 2.61375 6.625 2.9175 5.89437C3.21 5.1875 2.82875 3.97875 3.40375 3.40375C3.97875 2.82875 5.1875 3.21 5.89437 2.9175C6.62812 2.61375 7.21875 1.5 8 1.5C8.78125 1.5 9.375 2.61375 10.1056 2.9175C10.8131 3.21 12.0212 2.82875 12.5962 3.40375C13.1712 3.97875 12.79 5.18687 13.0825 5.89437C13.3863 6.62812 14.5 7.21875 14.5 8C14.5 8.78125 13.3863 9.375 13.0825 10.1056C12.79 10.8131 13.1712 12.0212 12.5962 12.5962C12.0212 13.1712 10.8131 12.79 10.1056 13.0825C9.375 13.3863 8.78125 14.5 8 14.5C7.21875 14.5 6.625 13.3863 5.89437 13.0825C5.1875 12.79 3.97875 13.1712 3.40375 12.5962Z" stroke="#7C8E9E" stroke-linecap="round" stroke-linejoin="round"/>
    <path d="M7.99969 11.2025C8.17642 11.2025 8.31969 11.0592 8.31969 10.8825C8.31969 10.7058 8.17642 10.5625 7.99969 10.5625C7.82296 10.5625 7.67969 10.7058 7.67969 10.8825C7.67969 11.0592 7.82296 11.2025 7.99969 11.2025Z" fill="#7C8E9E"/>
    <path d="M8 9V8.5C9.10438 8.5 10 7.71625 10 6.75C10 5.78375 9.10438 5 8 5C6.89562 5 6 5.78375 6 6.75V7" stroke="#7C8E9E" stroke-linecap="round" stroke-linejoin="round"/>
  </g>
  <defs>
    <clipPath id="clip0_2690_13829">
      <rect width="16" height="16" fill="white"/>
    </clipPath>
  </defs>
</svg>