<svg width="42" height="43" viewBox="0 0 42 43" fill="none" xmlns="http://www.w3.org/2000/svg">
<g clip-path="url(#clip0_1709_35469)">
<path d="M13.125 38.5625C14.5747 38.5625 15.75 37.3872 15.75 35.9375C15.75 34.4878 14.5747 33.3125 13.125 33.3125C11.6753 33.3125 10.5 34.4878 10.5 35.9375C10.5 37.3872 11.6753 38.5625 13.125 38.5625Z" fill="#25425D"/>
<path d="M30.1875 38.5625C31.6372 38.5625 32.8125 37.3872 32.8125 35.9375C32.8125 34.4878 31.6372 33.3125 30.1875 33.3125C28.7378 33.3125 27.5625 34.4878 27.5625 35.9375C27.5625 37.3872 28.7378 38.5625 30.1875 38.5625Z" fill="#25425D"/>
<path d="M6.9382 12.3125H36.75L32.0709 27.5227C31.9056 28.0593 31.5727 28.5288 31.1209 28.8622C30.6691 29.1956 30.1223 29.3753 29.5608 29.375H13.7927C13.2222 29.3752 12.6672 29.1896 12.2116 28.8462C11.756 28.5028 11.4247 28.0204 11.2678 27.4719L5.33367 6.70156C5.25527 6.42744 5.08973 6.18631 4.86211 6.01463C4.63448 5.84295 4.35714 5.75006 4.07203 5.75H1.3125" stroke="#25425D" stroke-linecap="round" stroke-linejoin="round"/>
</g>
<path d="M33.1126 13.5H28.8093C28.1499 13.5 27.671 14.127 27.8445 14.7631L29.9272 22.3997C30.1281 23.1363 31.1321 23.2357 31.4736 22.5529C31.4912 22.5177 31.5062 22.4813 31.5187 22.4439L34.0613 14.8162C34.2771 14.1687 33.7951 13.5 33.1126 13.5Z" fill="#D1E3F2"/>
<defs>
<clipPath id="clip0_1709_35469">
<rect width="42" height="42" fill="white" transform="translate(0 0.5)"/>
</clipPath>
</defs>
</svg>
