<svg xmlns="http://www.w3.org/2000/svg" width="151" height="190" viewBox="0 0 151 190" fill="none">
  <g clip-path="url(#clip0_38_7105)">
    <path d="M212.774 171.961C217.954 161.433 220.535 149.818 220.303 138.088C220.07 126.358 217.031 114.854 211.439 104.54C205.846 94.2258 197.865 85.4017 188.161 78.8064C178.458 72.2112 167.316 68.0368 155.668 66.6328C151.789 57.6493 146.154 49.5316 139.094 42.7564C132.034 35.9812 123.691 30.6852 114.556 27.1795C105.42 23.6739 95.6766 22.0293 85.8965 22.3423C76.1165 22.6553 66.4977 24.9196 57.6051 29.0022C48.7125 33.0849 40.7254 38.9035 34.1131 46.1163C27.5008 53.329 22.3966 61.7905 19.1004 71.0036C15.8042 80.2167 14.3824 89.9957 14.9185 99.766C15.4546 109.536 17.9379 119.101 22.2225 127.898L15.1908 152.518C14.6439 154.43 14.5482 156.443 14.9113 158.398C15.2743 160.353 16.0861 162.198 17.2829 163.786C18.4797 165.374 20.0287 166.663 21.8081 167.551C23.5876 168.439 25.5488 168.902 27.5375 168.904C28.7301 168.907 29.9171 168.74 31.0625 168.408L55.6824 161.376C63.1089 165.047 71.1104 167.417 79.3385 168.38C83.2556 177.555 89.0009 185.835 96.2237 192.716C103.447 199.597 111.996 204.934 121.349 208.402C130.703 211.87 140.665 213.395 150.628 212.886C160.59 212.376 170.345 209.843 179.296 205.439L203.916 212.471C206.119 213.098 208.449 213.125 210.666 212.55C212.882 211.975 214.905 210.818 216.524 209.198C218.144 207.579 219.301 205.556 219.876 203.339C220.452 201.122 220.424 198.792 219.797 196.59L212.774 171.961ZM121.17 139.529C118.992 139.529 116.862 138.883 115.05 137.672C113.239 136.462 111.827 134.741 110.993 132.729C110.159 130.716 109.941 128.501 110.366 126.364C110.791 124.227 111.841 122.264 113.381 120.724C114.922 119.183 116.884 118.134 119.021 117.709C121.158 117.284 123.373 117.502 125.386 118.336C127.399 119.17 129.119 120.582 130.329 122.393C131.54 124.205 132.186 126.334 132.186 128.513C132.186 131.435 131.025 134.236 128.96 136.302C126.894 138.368 124.092 139.529 121.17 139.529ZM73.4359 139.529C73.439 143.932 73.8415 148.325 74.6385 152.656C69.5122 151.465 64.5713 149.585 59.951 147.065C58.2671 146.146 56.2902 145.922 54.4432 146.441L30.1996 153.372L37.1303 129.128C37.6497 127.281 37.4256 125.304 36.5061 123.62C28.9296 109.997 27.075 93.9229 31.3504 78.9327C35.6259 63.9425 45.681 51.2647 59.3038 43.6882C72.9266 36.1117 89.0013 34.2572 103.991 38.5326C118.982 42.808 131.659 52.8631 139.236 66.4859C121.189 68.3977 104.486 76.9144 92.3389 90.3982C80.1921 103.882 73.4595 121.381 73.4359 139.529ZM172.577 139.529C170.398 139.529 168.268 138.883 166.457 137.672C164.645 136.462 163.233 134.741 162.399 132.729C161.566 130.716 161.348 128.501 161.773 126.364C162.198 124.227 163.247 122.264 164.787 120.724C166.328 119.183 168.291 118.134 170.428 117.709C172.564 117.284 174.779 117.502 176.792 118.336C178.805 119.17 180.525 120.582 181.736 122.393C182.946 124.205 183.592 126.334 183.592 128.513C183.592 131.435 182.432 134.236 180.366 136.302C178.3 138.368 175.498 139.529 172.577 139.529Z" fill="white" fill-opacity="0.25"/>
  </g>
  <defs>
    <clipPath id="clip0_38_7105">
      <rect width="235" height="235" fill="white"/>
    </clipPath>
  </defs>
</svg>