<svg xmlns="http://www.w3.org/2000/svg" width="51" height="50" viewBox="0 0 51 50" fill="none">
  <g clip-path="url(#clip0_2690_22205)">
    <path d="M44.1908 8.23631C44.2662 7.96903 44.2689 7.68651 44.1987 7.41782C44.1286 7.14914 43.9881 6.904 43.7918 6.70765C43.5954 6.51129 43.3503 6.37081 43.0816 6.30067C42.8129 6.23053 42.5304 6.23325 42.2631 6.30857L4.76311 17.6797C4.45695 17.7661 4.18446 17.9439 3.98206 18.1893C3.77966 18.4347 3.65699 18.7361 3.63045 19.0531C3.60391 19.3701 3.67476 19.6876 3.83353 19.9633C3.99231 20.2389 4.23144 20.4596 4.51896 20.5957L21.2416 28.5137C21.5672 28.6681 21.8294 28.9303 21.9838 29.2558L29.9037 45.9765C30.0398 46.2641 30.2605 46.5032 30.5361 46.662C30.8118 46.8207 31.1293 46.8916 31.4463 46.8651C31.7634 46.8385 32.0647 46.7158 32.3101 46.5134C32.5555 46.311 32.7333 46.0386 32.8197 45.7324L44.1908 8.23631Z" stroke="#25425D" stroke-linecap="round" stroke-linejoin="round"/>
    <path d="M21.6719 28.8242L31.7461 18.75" stroke="#25425D" stroke-linecap="round" stroke-linejoin="round"/>
    <path d="M40.9041 8.30378L37.4157 9.54964C36.976 9.70666 36.7035 10.147 36.7592 10.6105L37.5067 16.8398C37.6319 17.8837 39.0765 18.052 39.4384 17.0649L42.1793 9.58977C42.4712 8.79388 41.7024 8.01866 40.9041 8.30378Z" fill="#D1E3F2"/>
  </g>
  <defs>
    <clipPath id="clip0_2690_22205">
      <rect width="50" height="50" fill="white" transform="translate(0.5)"/>
    </clipPath>
  </defs>
</svg>