<svg xmlns="http://www.w3.org/2000/svg" width="51" height="50" viewBox="0 0 51 50" fill="none">
  <g clip-path="url(#clip0_2690_6035)">
    <path d="M11.1367 39.3633C9.33984 37.5664 10.5313 33.791 9.61719 31.5801C8.66797 29.2969 5.1875 27.4414 5.1875 25C5.1875 22.5586 8.66797 20.7031 9.61719 18.4199C10.5313 16.2109 9.33984 12.4336 11.1367 10.6367C12.9336 8.83984 16.7109 10.0313 18.9199 9.11719C21.2129 8.16797 23.0586 4.6875 25.5 4.6875C27.9414 4.6875 29.7969 8.16797 32.0801 9.11719C34.291 10.0313 38.0664 8.83984 39.8633 10.6367C41.6602 12.4336 40.4688 16.209 41.3828 18.4199C42.332 20.7129 45.8125 22.5586 45.8125 25C45.8125 27.4414 42.332 29.2969 41.3828 31.5801C40.4688 33.791 41.6602 37.5664 39.8633 39.3633C38.0664 41.1602 34.291 39.9688 32.0801 40.8828C29.7969 41.832 27.9414 45.3125 25.5 45.3125C23.0586 45.3125 21.2031 41.832 18.9199 40.8828C16.7109 39.9688 12.9336 41.1602 11.1367 39.3633Z" stroke="#25425D" stroke-linecap="round" stroke-linejoin="round"/>
    <path d="M25.5 35C26.0523 35 26.5 34.5523 26.5 34C26.5 33.4477 26.0523 33 25.5 33C24.9477 33 24.5 33.4477 24.5 34C24.5 34.5523 24.9477 35 25.5 35Z" fill="#25425D"/>
    <path d="M25.5 28.125V26.5625C28.9512 26.5625 31.75 24.1133 31.75 21.0938C31.75 18.0742 28.9512 15.625 25.5 15.625C22.0488 15.625 19.25 18.0742 19.25 21.0938V21.875" stroke="#25425D" stroke-linecap="round" stroke-linejoin="round"/>
    <path d="M30.5 14.0045C29.114 13.8065 27.9567 12.9012 26.9796 11.8959C25.6507 10.5286 25.6142 6.17982 27.1953 7.24539C27.2937 7.31172 27.3952 7.39613 27.5 7.50076C28.1317 8.13172 29.1164 9.66291 31 10.5C32.9172 11.352 35.739 11 37 11C39.5 11 38 13.8378 37.5 14.0045C37 14.1712 33.3 14.4045 30.5 14.0045Z" fill="#D1E3F2"/>
  </g>
  <defs>
    <clipPath id="clip0_2690_6035">
      <rect width="50" height="50" fill="white" transform="translate(0.5)"/>
    </clipPath>
  </defs>
</svg>