<svg width="18" height="18" viewBox="0 0 18 18" fill="none" xmlns="http://www.w3.org/2000/svg">
<g clip-path="url(#clip0_3301_82949)">
<path d="M13.5 8.4375C14.155 8.43701 14.8011 8.58928 15.387 8.88222C15.9729 9.17515 16.4824 9.60068 16.875 10.125" stroke="#E7E6E6" stroke-width="1.5" stroke-linecap="round" stroke-linejoin="round"/>
<path d="M1.125 10.125C1.51762 9.60068 2.02711 9.17515 2.61298 8.88222C3.19886 8.58928 3.84497 8.43701 4.5 8.4375" stroke="#E7E6E6" stroke-width="1.5" stroke-linecap="round" stroke-linejoin="round"/>
<path d="M9 12.9375C10.5533 12.9375 11.8125 11.6783 11.8125 10.125C11.8125 8.5717 10.5533 7.3125 9 7.3125C7.4467 7.3125 6.1875 8.5717 6.1875 10.125C6.1875 11.6783 7.4467 12.9375 9 12.9375Z" stroke="#E7E6E6" stroke-width="1.5" stroke-linecap="round" stroke-linejoin="round"/>
<path d="M5.0625 15.1875C5.4663 14.5023 6.04193 13.9343 6.73249 13.5397C7.42305 13.1451 8.20464 12.9375 9 12.9375C9.79536 12.9375 10.5769 13.1451 11.2675 13.5397C11.9581 13.9343 12.5337 14.5023 12.9375 15.1875" stroke="#E7E6E6" stroke-width="1.5" stroke-linecap="round" stroke-linejoin="round"/>
<path d="M11.3203 5.625C11.4255 5.21758 11.6428 4.84783 11.9476 4.55773C12.2524 4.26763 12.6324 4.06881 13.0446 3.98384C13.4567 3.89888 13.8843 3.93118 14.279 4.07708C14.6737 4.22298 15.0195 4.47663 15.2773 4.80921C15.5351 5.1418 15.6944 5.54001 15.7372 5.9586C15.78 6.3772 15.7046 6.79941 15.5195 7.17728C15.3344 7.55516 15.047 7.87356 14.69 8.09632C14.3331 8.31909 13.9208 8.43729 13.5 8.4375" stroke="#E7E6E6" stroke-width="1.5" stroke-linecap="round" stroke-linejoin="round"/>
<path d="M4.49887 8.4375C4.07809 8.43729 3.6658 8.31909 3.30883 8.09632C2.95186 7.87356 2.6645 7.55516 2.4794 7.17728C2.2943 6.79941 2.21887 6.3772 2.26167 5.9586C2.30448 5.54001 2.46381 5.1418 2.72157 4.80921C2.97932 4.47663 3.32518 4.22298 3.71985 4.07708C4.11453 3.93118 4.5422 3.89888 4.95431 3.98384C5.36643 4.06881 5.74645 4.26763 6.05124 4.55773C6.35603 4.84783 6.57336 5.21758 6.67855 5.625" stroke="#E7E6E6" stroke-width="1.5" stroke-linecap="round" stroke-linejoin="round"/>
</g>
<defs>
<clipPath id="clip0_3301_82949">
<rect width="18" height="18" fill="white"/>
</clipPath>
</defs>
</svg>
