<svg xmlns="http://www.w3.org/2000/svg" width="135" height="190" viewBox="0 0 135 190" fill="none">
  <g clip-path="url(#clip0_38_7108)">
    <path d="M-77.7744 171.961C-82.9535 161.433 -85.535 149.818 -85.3026 138.088C-85.0701 126.358 -82.0306 114.854 -76.4385 104.54C-70.8464 94.2258 -62.8645 85.4017 -53.1613 78.8064C-43.458 72.2112 -32.3157 68.0368 -20.6676 66.6328C-16.789 57.6493 -11.1542 49.5316 -4.09418 42.7564C2.96579 35.9812 11.3086 30.6852 20.444 27.1795C29.5795 23.6739 39.3234 22.0293 49.1035 22.3423C58.8835 22.6553 68.5023 24.9196 77.3949 29.0022C86.2875 33.0849 94.2746 38.9035 100.887 46.1163C107.499 53.329 112.603 61.7905 115.9 71.0036C119.196 80.2167 120.618 89.9957 120.081 99.766C119.545 109.536 117.062 119.101 112.778 127.898L119.809 152.518C120.356 154.43 120.452 156.443 120.089 158.398C119.726 160.353 118.914 162.198 117.717 163.786C116.52 165.374 114.971 166.663 113.192 167.551C111.412 168.439 109.451 168.902 107.463 168.904C106.27 168.907 105.083 168.74 103.938 168.408L79.3176 161.376C71.8911 165.047 63.8896 167.417 55.6615 168.38C51.7444 177.555 45.9991 185.835 38.7763 192.716C31.5534 199.597 23.0044 204.934 13.6507 208.402C4.29711 211.87 -5.66496 213.395 -15.6277 212.886C-25.5905 212.376 -35.345 209.843 -44.2961 205.439L-68.916 212.471C-71.1186 213.098 -73.4488 213.125 -75.6656 212.55C-77.8823 211.975 -79.9051 210.818 -81.5245 209.198C-83.1439 207.579 -84.3011 205.556 -84.8765 203.339C-85.4518 201.122 -85.4243 198.792 -84.7969 196.59L-77.7744 171.961ZM13.8297 139.529C16.0084 139.529 18.1381 138.883 19.9496 137.672C21.7612 136.462 23.1731 134.741 24.0068 132.729C24.8405 130.716 25.0587 128.501 24.6337 126.364C24.2086 124.227 23.1595 122.264 21.6189 120.724C20.0784 119.183 18.1155 118.134 15.9787 117.709C13.8419 117.284 11.627 117.502 9.6142 118.336C7.60136 119.17 5.88095 120.582 4.67054 122.393C3.46012 124.205 2.81406 126.334 2.81406 128.513C2.81406 131.435 3.97464 134.236 6.04047 136.302C8.1063 138.368 10.9082 139.529 13.8297 139.529ZM61.5641 139.529C61.561 143.932 61.1585 148.325 60.3615 152.656C65.4878 151.465 70.4287 149.585 75.049 147.065C76.7329 146.146 78.7098 145.922 80.5568 146.441L104.8 153.372L97.8697 129.128C97.3503 127.281 97.5744 125.304 98.4939 123.62C106.07 109.997 107.925 93.9229 103.65 78.9327C99.3741 63.9425 89.319 51.2647 75.6962 43.6882C62.0734 36.1117 45.9987 34.2572 31.0086 38.5326C16.0184 42.808 3.34057 52.8631 -4.23592 66.4859C13.8113 68.3977 30.5144 76.9144 42.6611 90.3982C54.8079 103.882 61.5405 121.381 61.5641 139.529ZM-37.5766 139.529C-35.3979 139.529 -33.2681 138.883 -31.4566 137.672C-29.6451 136.462 -28.2332 134.741 -27.3994 132.729C-26.5657 130.716 -26.3475 128.501 -26.7726 126.364C-27.1976 124.227 -28.2468 122.264 -29.7873 120.724C-31.3279 119.183 -33.2907 118.134 -35.4275 117.709C-37.5643 117.284 -39.7792 117.502 -41.792 118.336C-43.8049 119.17 -45.5253 120.582 -46.7357 122.393C-47.9461 124.205 -48.5922 126.334 -48.5922 128.513C-48.5922 131.435 -47.4316 134.236 -45.3658 136.302C-43.2999 138.368 -40.4981 139.529 -37.5766 139.529Z" fill="white" fill-opacity="0.15"/>
  </g>
  <defs>
    <clipPath id="clip0_38_7108">
      <rect width="235" height="235" fill="white" transform="matrix(-1 0 0 1 135 0)"/>
    </clipPath>
  </defs>
</svg>