<svg xmlns="http://www.w3.org/2000/svg" width="20" height="21" viewBox="0 0 20 21" fill="none">
  <g clip-path="url(#clip0_2690_13838)">
    <path d="M7.5 9.25H12.5" stroke="#7C8E9E" stroke-width="1.5" stroke-linecap="round" stroke-linejoin="round"/>
    <path d="M7.5 11.75H12.5" stroke="#7C8E9E" stroke-width="1.5" stroke-linecap="round" stroke-linejoin="round"/>
    <path d="M10.3125 17.375H3.72422C3.6455 17.3751 3.56753 17.3597 3.49479 17.3296C3.42204 17.2995 3.35594 17.2554 3.30028 17.1997C3.24462 17.1441 3.20048 17.078 3.1704 17.0052C3.14033 16.9325 3.1249 16.8545 3.125 16.7758V10.1875C3.125 8.28126 3.88225 6.45309 5.23017 5.10517C6.57809 3.75725 8.40626 3 10.3125 3C11.2564 3 12.191 3.18591 13.063 3.54712C13.9351 3.90832 14.7274 4.43775 15.3948 5.10517C16.0623 5.77259 16.5917 6.56493 16.9529 7.43696C17.3141 8.30899 17.5 9.24362 17.5 10.1875C17.5 11.1314 17.3141 12.066 16.9529 12.938C16.5917 13.8101 16.0623 14.6024 15.3948 15.2698C14.7274 15.9373 13.9351 16.4667 13.063 16.8279C12.191 17.1891 11.2564 17.375 10.3125 17.375Z" stroke="#7C8E9E" stroke-width="1.5" stroke-linecap="round" stroke-linejoin="round"/>
  </g>
  <defs>
    <clipPath id="clip0_2690_13838">
      <rect width="20" height="20" fill="white" transform="translate(0 0.5)"/>
    </clipPath>
  </defs>
</svg>