<svg width="10" height="10" viewBox="0 0 10 10" fill="none" xmlns="http://www.w3.org/2000/svg">
<rect width="10" height="10" fill="#CFCFCF"/>
<g id="SIGN IN &#38; SIGN UP">
<path d="M-29552 -2215C-29552 -2270.23 -29507.2 -2315 -29452 -2315H25268C25323.2 -2315 25368 -2270.23 25368 -2215V1518C25368 1573.23 25323.2 1618 25268 1618H-29452C-29507.2 1618 -29552 1573.23 -29552 1518V-2215Z" fill="#A4A4A4"/>
<path d="M-29452 -2314H25268V-2316H-29452V-2314ZM25367 -2215V1518H25369V-2215H25367ZM25268 1617H-29452V1619H25268V1617ZM-29551 1518V-2215H-29553V1518H-29551ZM-29452 1617C-29506.7 1617 -29551 1572.68 -29551 1518H-29553C-29553 1573.78 -29507.8 1619 -29452 1619V1617ZM25367 1518C25367 1572.68 25322.7 1617 25268 1617V1619C25323.8 1619 25369 1573.78 25369 1518H25367ZM25268 -2314C25322.7 -2314 25367 -2269.68 25367 -2215H25369C25369 -2270.78 25323.8 -2316 25268 -2316V-2314ZM-29452 -2316C-29507.8 -2316 -29553 -2270.78 -29553 -2215H-29551C-29551 -2269.68 -29506.7 -2314 -29452 -2314V-2316Z" fill="black" fill-opacity="0.1"/>
<g id="Sign up / Step 2 / Default">
<rect x="-921" y="-863" width="1440" height="917" rx="30" fill="white"/>
<g id="Frame 1261154094">
<circle id="Ellipse 313" cx="5" cy="5" r="5" fill="#6CB4DA"/>
</g>
</g>
</g>
</svg>
