<svg width="20" height="20" viewBox="0 0 20 20" fill="none" xmlns="http://www.w3.org/2000/svg">
<g id="Facebook">
<path id="Vector" d="M8.58683 18.4868C4.5154 17.7583 1.42969 14.244 1.42969 10.0011C1.42969 5.28683 5.28683 1.42969 10.0011 1.42969C14.7154 1.42969 18.5725 5.28683 18.5725 10.0011C18.5725 14.244 15.4868 17.7583 11.4154 18.4868L10.944 18.1011H9.05826L8.58683 18.4868Z" fill="url(#paint0_linear_3607_38135)"/>
<path id="Vector_2" d="M13.3415 12.3981L13.7272 9.9981H11.4558V8.32667C11.4558 7.64096 11.7129 7.12667 12.7415 7.12667H13.8558V4.94096C13.2558 4.85525 12.5701 4.76953 11.9701 4.76953C9.99866 4.76953 8.62723 5.96953 8.62723 8.11239V9.9981H6.48438V12.3981H8.62723V18.441C9.09866 18.5267 9.57009 18.5695 10.0415 18.5695C10.5129 18.5695 10.9844 18.5267 11.4558 18.441V12.3981H13.3415Z" fill="white"/>
</g>
<defs>
<linearGradient id="paint0_linear_3607_38135" x1="10.0015" y1="17.9764" x2="10.0015" y2="1.42653" gradientUnits="userSpaceOnUse">
<stop stop-color="#0062E0"/>
<stop offset="1" stop-color="#19AFFF"/>
</linearGradient>
</defs>
</svg>
