<svg width="18" height="18" viewBox="0 0 18 18" fill="none" xmlns="http://www.w3.org/2000/svg">
<g clip-path="url(#clip0_3301_82969)">
<path d="M3.82922 14.1708C3.18234 13.5239 3.61125 12.1648 3.28219 11.3688C2.94047 10.5469 1.6875 9.87891 1.6875 9C1.6875 8.12109 2.94047 7.45312 3.28219 6.63117C3.61125 5.83594 3.18234 4.47609 3.82922 3.82922C4.47609 3.18234 5.83594 3.61125 6.63117 3.28219C7.45664 2.94047 8.12109 1.6875 9 1.6875C9.87891 1.6875 10.5469 2.94047 11.3688 3.28219C12.1648 3.61125 13.5239 3.18234 14.1708 3.82922C14.8177 4.47609 14.3888 5.83523 14.7178 6.63117C15.0595 7.45664 16.3125 8.12109 16.3125 9C16.3125 9.87891 15.0595 10.5469 14.7178 11.3688C14.3888 12.1648 14.8177 13.5239 14.1708 14.1708C13.5239 14.8177 12.1648 14.3888 11.3688 14.7178C10.5469 15.0595 9.87891 16.3125 9 16.3125C8.12109 16.3125 7.45312 15.0595 6.63117 14.7178C5.83594 14.3888 4.47609 14.8177 3.82922 14.1708Z" stroke="#000" stroke-width="1.5" stroke-linecap="round" stroke-linejoin="round"/>
<path d="M9.09375 12.6562C9.09375 12.708 9.05178 12.75 9 12.75C8.94822 12.75 8.90625 12.708 8.90625 12.6562C8.90625 12.6045 8.94822 12.5625 9 12.5625C9.05178 12.5625 9.09375 12.6045 9.09375 12.6562Z" fill="#E7E6E6" stroke="#000" stroke-width="1.5"/>
<path d="M9 10.125V9.5625C10.2424 9.5625 11.25 8.68078 11.25 7.59375C11.25 6.50672 10.2424 5.625 9 5.625C7.75758 5.625 6.75 6.50672 6.75 7.59375V7.875" stroke="#000" stroke-width="1.5" stroke-linecap="round" stroke-linejoin="round"/>
</g>
<defs>
<clipPath id="clip0_3301_82969">
<rect width="18" height="18" fill="white"/>
</clipPath>
</defs>
</svg>
