<svg xmlns="http://www.w3.org/2000/svg" width="20" height="21" viewBox="0 0 20 21" fill="none">
  <g clip-path="url(#clip0_1655_118171)">
    <path d="M16.875 3.625H3.125C2.79348 3.625 2.47554 3.7567 2.24112 3.99112C2.0067 4.22554 1.875 4.54348 1.875 4.875V16.125C1.875 16.4565 2.0067 16.7745 2.24112 17.0089C2.47554 17.2433 2.79348 17.375 3.125 17.375H16.875C17.2065 17.375 17.5245 17.2433 17.7589 17.0089C17.9933 16.7745 18.125 16.4565 18.125 16.125V4.875C18.125 4.54348 17.9933 4.22554 17.7589 3.99112C17.5245 3.7567 17.2065 3.625 16.875 3.625ZM8.75 11.75C8.75 12.413 8.48661 13.0489 8.01777 13.5178C7.54893 13.9866 6.91304 14.25 6.25 14.25C5.58696 14.25 4.95107 13.9866 4.48223 13.5178C4.01339 13.0489 3.75 12.413 3.75 11.75V9.25C3.75008 8.74373 3.90386 8.24942 4.191 7.83246C4.47814 7.4155 4.8851 7.09554 5.35805 6.91491C5.83099 6.73429 6.34764 6.70151 6.83962 6.82091C7.33161 6.94031 7.77575 7.20627 8.11328 7.58359C8.17118 7.64419 8.2163 7.71581 8.24595 7.7942C8.27561 7.87259 8.28919 7.95614 8.2859 8.03989C8.28261 8.12363 8.26252 8.20586 8.2268 8.28168C8.19109 8.3575 8.14049 8.42536 8.07802 8.48123C8.01555 8.5371 7.94248 8.57983 7.86315 8.60689C7.78383 8.63394 7.69988 8.64477 7.61629 8.63872C7.53269 8.63268 7.45117 8.60988 7.37657 8.57168C7.30197 8.53349 7.23581 8.48069 7.18203 8.41641C7.01327 8.22757 6.79114 8.09446 6.54504 8.03468C6.29894 7.97491 6.04049 7.99129 5.80391 8.08167C5.56733 8.17205 5.36379 8.33216 5.22023 8.54079C5.07667 8.74943 4.99987 8.99675 5 9.25V11.75C5 12.0815 5.1317 12.3995 5.36612 12.6339C5.60054 12.8683 5.91848 13 6.25 13C6.58152 13 6.89946 12.8683 7.13388 12.6339C7.3683 12.3995 7.5 12.0815 7.5 11.75V11.125H6.875C6.70924 11.125 6.55027 11.0592 6.43306 10.9419C6.31585 10.8247 6.25 10.6658 6.25 10.5C6.25 10.3342 6.31585 10.1753 6.43306 10.0581C6.55027 9.94085 6.70924 9.875 6.875 9.875H8.125C8.29076 9.875 8.44973 9.94085 8.56694 10.0581C8.68415 10.1753 8.75 10.3342 8.75 10.5V11.75ZM11.25 13.625C11.25 13.7908 11.1842 13.9497 11.0669 14.0669C10.9497 14.1842 10.7908 14.25 10.625 14.25C10.4592 14.25 10.3003 14.1842 10.1831 14.0669C10.0658 13.9497 10 13.7908 10 13.625V7.375C10 7.20924 10.0658 7.05027 10.1831 6.93306C10.3003 6.81585 10.4592 6.75 10.625 6.75C10.7908 6.75 10.9497 6.81585 11.0669 6.93306C11.1842 7.05027 11.25 7.20924 11.25 7.375V13.625ZM15.625 8H13.75V9.875H15C15.1658 9.875 15.3247 9.94085 15.4419 10.0581C15.5592 10.1753 15.625 10.3342 15.625 10.5C15.625 10.6658 15.5592 10.8247 15.4419 10.9419C15.3247 11.0592 15.1658 11.125 15 11.125H13.75V13.625C13.75 13.7908 13.6842 13.9497 13.5669 14.0669C13.4497 14.1842 13.2908 14.25 13.125 14.25C12.9592 14.25 12.8003 14.1842 12.6831 14.0669C12.5658 13.9497 12.5 13.7908 12.5 13.625V7.375C12.5 7.20924 12.5658 7.05027 12.6831 6.93306C12.8003 6.81585 12.9592 6.75 13.125 6.75H15.625C15.7908 6.75 15.9497 6.81585 16.0669 6.93306C16.1842 7.05027 16.25 7.20924 16.25 7.375C16.25 7.54076 16.1842 7.69973 16.0669 7.81694C15.9497 7.93415 15.7908 8 15.625 8Z" fill="#6CB4DA"/>
  </g>
  <defs>
    <clipPath id="clip0_1655_118171">
      <rect width="20" height="20" fill="white" transform="translate(0 0.5)"/>
    </clipPath>
  </defs>
</svg>