<svg width="20" height="20" viewBox="0 0 20 20" fill="none" xmlns="http://www.w3.org/2000/svg">
<g id="Globe" clip-path="url(#clip0_3607_3444)">
<path id="Vector" d="M16.1227 7.375H16.9412L16.5675 6.64674C16.0959 5.72755 15.4371 4.91724 14.6335 4.26792C13.8299 3.61859 12.8994 3.14463 11.9016 2.87651L10.6012 2.52703L11.3584 3.64054C12.0539 4.66323 12.5655 5.79949 12.8701 6.99815L12.9659 7.375H13.3547H16.1227ZM10.3674 2.79445L9.99972 2.39613L9.63234 2.79474C8.63697 3.87471 7.89866 5.23634 7.45999 6.7345L7.27245 7.375H7.93985H12.0602H12.7276L12.54 6.7345C12.1014 5.23657 11.3631 3.87316 10.3674 2.79445ZM7.65625 7.625H7.23311L7.16314 8.04232C7.05468 8.68922 7.00011 9.344 7 9.99992V10.0001C7.00011 10.656 7.05468 11.3108 7.16314 11.9577L7.23311 12.375H7.65625H12.3438H12.7672L12.8369 11.9573C13.0533 10.6614 13.0533 9.33858 12.8369 8.04265L12.7672 7.625H12.3438H7.65625ZM7.93985 12.625H7.27245L7.45999 13.2655C7.89866 14.7637 8.63697 16.1253 9.63234 17.2053L10 17.6042L10.3677 17.2053C11.363 16.1253 12.1013 14.7637 12.54 13.2655L12.7276 12.625H12.0602H7.93985ZM11.3584 16.3595L10.6012 17.473L11.9016 17.1235C12.8994 16.8554 13.8299 16.3814 14.6335 15.7321C15.4371 15.0828 16.0959 14.2724 16.5675 13.3533L16.9412 12.625H16.1227H13.3547H12.9659L12.8701 13.0018C12.5655 14.2005 12.0539 15.3368 11.3584 16.3595ZM13.1157 11.8008L13.0296 12.375H13.6102H16.6148H16.993L17.096 12.0111C17.468 10.6962 17.468 9.30381 17.096 7.98887L16.993 7.625H16.6148H13.6102H13.0296L13.1157 8.19917C13.2948 9.39304 13.2948 10.607 13.1157 11.8008ZM5.76378 3.66004C7.01763 2.82225 8.49174 2.37505 9.99973 2.375C12.0214 2.3772 13.9596 3.18128 15.3892 4.61082C16.8188 6.04042 17.6229 7.97877 17.625 10.0005C17.6249 11.5084 17.1777 12.9824 16.34 14.2362C15.5021 15.4901 14.3113 16.4675 12.918 17.0446C11.5247 17.6217 9.99155 17.7727 8.51244 17.4785C7.03333 17.1843 5.67469 16.4581 4.60831 15.3917C3.54194 14.3253 2.81573 12.9667 2.52152 11.4876C2.2273 10.0085 2.3783 8.47533 2.95542 7.08204C3.53254 5.68875 4.50986 4.49789 5.76378 3.66004Z" fill="#25425D" stroke="#25425D"/>
</g>
<defs>
<clipPath id="clip0_3607_3444">
<rect width="20" height="20" fill="white"/>
</clipPath>
</defs>
</svg>
