<svg width="20" height="20" viewBox="0 0 20 20" fill="none" xmlns="http://www.w3.org/2000/svg">
<g id="Instagram">
<path id="Vector" d="M10.0003 1.55859C6.4755 1.55859 5.44463 1.56223 5.24424 1.57885C4.52089 1.63898 4.07077 1.75288 3.5804 1.99704C3.20249 2.1847 2.90444 2.40223 2.6103 2.70717C2.0746 3.26327 1.74993 3.94742 1.63241 4.76067C1.57526 5.15548 1.55864 5.236 1.55526 7.25262C1.55397 7.92483 1.55526 8.8095 1.55526 9.99613C1.55526 13.5182 1.55916 14.5481 1.57604 14.7481C1.63448 15.452 1.74487 15.8948 1.97863 16.3792C2.42537 17.3065 3.27859 18.0026 4.28375 18.2624C4.63179 18.352 5.0162 18.4013 5.50969 18.4247C5.71878 18.4338 7.84988 18.4403 9.98228 18.4403C12.1147 18.4403 14.2471 18.4377 14.451 18.4273C15.0224 18.4004 15.3542 18.3559 15.7211 18.2611C16.7327 18 17.5704 17.3143 18.0262 16.374C18.2554 15.9013 18.3716 15.4416 18.4242 14.7744C18.4357 14.629 18.4405 12.3099 18.4405 9.99392C18.4405 7.67756 18.4353 5.36275 18.4238 5.2173C18.3706 4.53937 18.2544 4.08353 18.0178 3.60171C17.8236 3.2073 17.608 2.91275 17.295 2.61158C16.7365 2.07807 16.0534 1.7534 15.2394 1.636C14.845 1.57898 14.7664 1.5621 12.7483 1.55859H10.0003Z" fill="url(#paint0_radial_3607_38357)"/>
<path id="Vector_2" d="M10.0003 1.55859C6.4755 1.55859 5.44463 1.56223 5.24424 1.57885C4.52089 1.63898 4.07077 1.75288 3.5804 1.99704C3.20249 2.1847 2.90444 2.40223 2.6103 2.70717C2.0746 3.26327 1.74993 3.94742 1.63241 4.76067C1.57526 5.15548 1.55864 5.236 1.55526 7.25262C1.55397 7.92483 1.55526 8.8095 1.55526 9.99613C1.55526 13.5182 1.55916 14.5481 1.57604 14.7481C1.63448 15.452 1.74487 15.8948 1.97863 16.3792C2.42537 17.3065 3.27859 18.0026 4.28375 18.2624C4.63179 18.352 5.0162 18.4013 5.50969 18.4247C5.71878 18.4338 7.84988 18.4403 9.98228 18.4403C12.1147 18.4403 14.2471 18.4377 14.451 18.4273C15.0224 18.4004 15.3542 18.3559 15.7211 18.2611C16.7327 18 17.5704 17.3143 18.0262 16.374C18.2554 15.9013 18.3716 15.4416 18.4242 14.7744C18.4357 14.629 18.4405 12.3099 18.4405 9.99392C18.4405 7.67756 18.4353 5.36275 18.4238 5.2173C18.3706 4.53937 18.2544 4.08353 18.0178 3.60171C17.8236 3.2073 17.608 2.91275 17.295 2.61158C16.7365 2.07807 16.0534 1.7534 15.2394 1.636C14.845 1.57898 14.7664 1.5621 12.7483 1.55859H10.0003Z" fill="url(#paint1_radial_3607_38357)"/>
<path id="Vector_3" d="M9.99972 3.76562C8.30679 3.76562 8.09433 3.77303 7.42941 3.80329C6.76579 3.83368 6.31282 3.93874 5.91647 4.0929C5.50648 4.25212 5.1587 4.46511 4.81222 4.81173C4.46547 5.15822 4.25249 5.50601 4.09276 5.91588C3.93822 6.31238 3.83303 6.7655 3.80316 7.42887C3.77342 8.09381 3.76562 8.3064 3.76562 9.99939C3.76562 11.6924 3.77316 11.9042 3.80329 12.5691C3.8338 13.2328 3.93887 13.6858 4.09289 14.0821C4.25223 14.4921 4.46521 14.8399 4.81183 15.1864C5.15818 15.5332 5.50596 15.7467 5.91569 15.9059C6.3123 16.06 6.7654 16.1651 7.42889 16.1955C8.09381 16.2258 8.30614 16.2332 9.99894 16.2332C11.692 16.2332 11.9038 16.2258 12.5687 16.1955C13.2324 16.1651 13.6858 16.06 14.0825 15.9059C14.4923 15.7467 14.8396 15.5332 15.1859 15.1864C15.5327 14.8399 15.7457 14.4921 15.9054 14.0822C16.0586 13.6858 16.1638 13.2326 16.195 12.5693C16.2249 11.9043 16.2326 11.6924 16.2326 9.99939C16.2326 8.3064 16.2249 8.09394 16.195 7.429C16.1638 6.76537 16.0586 6.31238 15.9054 5.91601C15.7457 5.50601 15.5327 5.15822 15.1859 4.81173C14.8392 4.46498 14.4924 4.25199 14.0821 4.0929C13.6847 3.93874 13.2314 3.83368 12.5678 3.80329C11.9029 3.77303 11.6912 3.76562 9.99777 3.76562H9.99972ZM9.44052 4.889C9.60649 4.88874 9.79168 4.889 9.99972 4.889C11.6641 4.889 11.8614 4.89498 12.5186 4.92485C13.1264 4.95264 13.4562 5.0542 13.676 5.13952C13.9669 5.25251 14.1743 5.38757 14.3923 5.60575C14.6105 5.82394 14.7456 6.03173 14.8588 6.32264C14.9441 6.54212 15.0458 6.87199 15.0735 7.47978C15.1033 8.13692 15.1098 8.33433 15.1098 9.99796C15.1098 11.6616 15.1033 11.859 15.0735 12.5161C15.0457 13.1239 14.9441 13.4538 14.8588 13.6733C14.7458 13.9642 14.6105 14.1713 14.3923 14.3894C14.1741 14.6076 13.967 14.7426 13.676 14.8556C13.4565 14.9413 13.1264 15.0426 12.5186 15.0704C11.8615 15.1003 11.6641 15.1068 9.99972 15.1068C8.33523 15.1068 8.13796 15.1003 7.48084 15.0704C6.87306 15.0424 6.5432 14.9408 6.32334 14.8555C6.03244 14.7425 5.82465 14.6074 5.60648 14.3893C5.3883 14.1711 5.25324 13.9638 5.14 13.6728C5.05468 13.4533 4.95299 13.1234 4.92533 12.5156C4.89546 11.8585 4.88949 11.6611 4.88949 9.9964C4.88949 8.33173 4.89546 8.13537 4.92533 7.47822C4.95312 6.87043 5.05468 6.54056 5.14 6.32082C5.25298 6.02991 5.3883 5.82212 5.60648 5.60394C5.82465 5.38575 6.03244 5.25069 6.32334 5.13744C6.54307 5.05173 6.87306 4.95043 7.48084 4.92251C8.05588 4.89653 8.27874 4.88874 9.44052 4.88744V4.889ZM13.3272 5.92407C12.9142 5.92407 12.5791 6.25874 12.5791 6.67186C12.5791 7.08485 12.9142 7.41991 13.3272 7.41991C13.7401 7.41991 14.0752 7.08485 14.0752 6.67186C14.0752 6.25887 13.7401 5.92381 13.3272 5.92381V5.92407ZM9.99972 6.79809C8.23185 6.79809 6.79852 8.23147 6.79852 9.99939C6.79852 11.7673 8.23185 13.2 9.99972 13.2C11.7676 13.2 13.2004 11.7673 13.2004 9.99939C13.2004 8.23147 11.7676 6.79809 9.99972 6.79809ZM9.99972 7.92147C11.1472 7.92147 12.0776 8.85173 12.0776 9.99939C12.0776 11.1469 11.1472 12.0773 9.99972 12.0773C8.85209 12.0773 7.92186 11.1469 7.92186 9.99939C7.92186 8.85173 8.85209 7.92147 9.99972 7.92147Z" fill="white"/>
</g>
<defs>
<radialGradient id="paint0_radial_3607_38357" cx="0" cy="0" r="1" gradientUnits="userSpaceOnUse" gradientTransform="translate(6.03999 19.7405) rotate(-90) scale(16.731 15.5649)">
<stop stop-color="#FFDD55"/>
<stop offset="0.1" stop-color="#FFDD55"/>
<stop offset="0.5" stop-color="#FF543E"/>
<stop offset="1" stop-color="#C837AB"/>
</radialGradient>
<radialGradient id="paint1_radial_3607_38357" cx="0" cy="0" r="1" gradientUnits="userSpaceOnUse" gradientTransform="translate(-1.27377 2.77472) rotate(78.678) scale(7.4789 30.8352)">
<stop stop-color="#3771C8"/>
<stop offset="0.128" stop-color="#3771C8"/>
<stop offset="1" stop-color="#6600FF" stop-opacity="0"/>
</radialGradient>
</defs>
</svg>
