<svg width="97" height="96" viewBox="0 0 97 96" fill="none" xmlns="http://www.w3.org/2000/svg">
<rect x="0.5" width="96" height="96" rx="48" fill="#6CB4DA" fill-opacity="0.1"/>
<g clip-path="url(#clip0_1694_106883)">
<path d="M48.42 64.8613C48.3435 65.1858 48.1671 65.4739 47.9186 65.6797C47.6702 65.8856 47.3641 65.9975 47.0488 65.9975C46.9297 65.9981 46.811 65.983 46.6954 65.9525L41.0412 64.4525C40.8838 64.4106 40.7344 64.3402 40.5995 64.2444L36.3588 61.2444C36.047 61.0236 35.8305 60.6804 35.7571 60.2902C35.6837 59.9001 35.7594 59.495 35.9674 59.1641C36.1755 58.8331 36.499 58.6035 36.8666 58.5256C37.2343 58.4477 37.616 58.528 37.9279 58.7488L41.9636 61.6044L47.381 63.0425C47.562 63.0891 47.7326 63.1731 47.8829 63.2899C48.0332 63.4066 48.1602 63.5537 48.2568 63.7227C48.3533 63.8917 48.4174 64.0793 48.4454 64.2747C48.4735 64.4701 48.4648 64.6694 48.42 64.8613ZM71.8656 46.775C71.7496 47.1489 71.5649 47.4946 71.3223 47.7923C71.0797 48.09 70.7839 48.3337 70.452 48.5094L66.2679 50.7294L63.6033 53.5588L56.5356 61.0588C56.3628 61.2419 56.1483 61.3744 55.913 61.4434C55.6777 61.5124 55.4295 61.5155 55.1927 61.4525L43.8842 58.4525C43.7123 58.4067 43.5499 58.3272 43.4054 58.2181L33.5953 50.7856L29.3052 48.5094C28.6347 48.1537 28.1248 47.53 27.8875 46.7755C27.6503 46.0209 27.7051 45.1973 28.0401 44.4856L32.4309 35.1688C32.7661 34.4573 33.3538 33.9162 34.0649 33.6644C34.776 33.4127 35.5521 33.4709 36.2228 33.8263L40.1206 35.8888L49.4855 33.05C49.7395 32.9729 50.0088 32.9729 50.2629 33.05L59.6277 35.8888L63.5256 33.8263C64.1962 33.4709 64.9724 33.4127 65.6835 33.6644C66.3945 33.9162 66.9823 34.4573 67.3175 35.1688L71.7083 44.4856C71.8758 44.8373 71.9759 45.2207 72.0029 45.6136C72.0299 46.0066 71.9832 46.4013 71.8656 46.775ZM60.4776 52.6213L55.5814 48.4606C52.1288 51.4606 47.745 51.8563 44.1122 49.3981C43.7548 49.1569 43.4531 48.8336 43.2293 48.452C43.0055 48.0705 42.8654 47.6404 42.8193 47.1937C42.7731 46.7469 42.8222 46.2949 42.9628 45.8709C43.1034 45.447 43.3319 45.062 43.6316 44.7444C43.6358 44.7389 43.6406 44.7339 43.6457 44.7294L51.5722 36.5713L49.8759 36.0575L40.967 38.7594L36.1309 49.0213L44.8243 55.6119L55.0973 58.3363L60.4776 52.6213ZM63.7005 49.2013L58.898 38.9975H53.2755L45.6353 46.8725C47.8722 48.3894 51.3796 48.8075 54.5265 45.4419C54.7723 45.179 55.101 45.0219 55.4494 45.0008C55.7978 44.9797 56.1413 45.096 56.4136 45.3275L62.4937 50.4969L63.7005 49.2013Z" fill="#6CB4DA"/>
</g>
<defs>
<clipPath id="clip0_1694_106883">
<rect width="48" height="48" fill="white" transform="translate(24.5 24)"/>
</clipPath>
</defs>
</svg>
