<svg xmlns="http://www.w3.org/2000/svg" width="198" height="36" viewBox="0 0 198 36" fill="none">
  <g clip-path="url(#clip0_4104_68873)">
    <path d="M15.8359 7.73648V7.8072C15.8572 8.6241 16.5326 9.26418 17.3707 9.26418C18.1947 9.24296 18.8489 8.55337 18.8277 7.7294C18.8171 7.3298 18.6473 6.95848 18.3538 6.67911C18.0603 6.40327 17.6854 6.25828 17.2894 6.27243C16.4972 6.29365 15.8572 6.93726 15.8359 7.73648Z" fill="#25425D"/>
    <path d="M34.2284 17.5139C34.1011 12.899 32.195 8.62352 28.8638 5.47617C25.5927 2.3854 21.3314 0.755147 16.8862 0.889528C16.8473 0.889528 16.8084 0.889528 16.7695 0.889528C12.3632 0.889528 8.07007 2.72489 4.96869 5.93589C1.79306 9.09739 -0.0175534 13.4931 0.000128305 18.0019C0.007201 27.4369 7.57498 35.1143 16.865 35.1143C17.0276 35.1178 17.1868 35.1214 17.3494 35.1214C17.5121 35.1214 17.6712 35.1214 17.8339 35.1143C22.3428 34.987 26.5333 33.0844 29.6312 29.7567C32.7255 26.4326 34.3593 22.0864 34.2284 17.5139ZM2.47203 18.0019C2.47203 15.7846 2.98127 13.5709 3.95023 11.5834L15.8819 29.297V32.5929C8.35298 31.9634 2.47203 25.5768 2.47203 17.9984V18.0019ZM31.7636 18.0019C31.7636 25.5768 25.8826 31.9669 18.3538 32.5964V29.3642L30.3066 11.6223C31.2614 13.5956 31.7671 15.7988 31.7671 18.0019H31.7636ZM28.8921 9.29188L17.1373 26.7402L5.36476 9.26006C8.12311 5.56104 12.5117 3.35436 17.1196 3.35436C21.7274 3.35436 26.1408 5.57165 28.8956 9.29188H28.8921Z" fill="#25425D"/>
    <path d="M58.6316 16.7439H49.4619V7.95605H46.6328V28.046H49.4619V19.2158H58.6316V28.046H61.4607V7.95605H58.6316V16.7439Z" fill="#25425D"/>
    <path d="M80.0506 7.95605H77.9288L70.4671 27.901L70.4141 28.046H73.4907L74.9724 23.8095H83.0636L84.5453 28.046H87.5441L80.0789 8.02678L80.0541 7.95605H80.0506ZM82.0663 21.1855H75.906L79.0003 12.4437L82.0663 21.1855Z" fill="#25425D"/>
    <path d="M102.264 7.95605H96.5V28.046H99.3291V19.2582H102.264C106.296 19.2582 108.803 17.1081 108.803 13.646C108.803 10.184 106.236 7.95605 102.264 7.95605ZM106.016 13.646C106.016 16.1604 103.976 16.6908 102.264 16.6908L99.3291 16.7085V10.5588H102.264C103.976 10.5588 106.016 11.0928 106.016 13.646Z" fill="#25425D"/>
    <path d="M124.452 7.95605H118.688V28.046H121.495V19.2582H124.452C128.483 19.2582 130.99 17.1081 130.99 13.646C130.99 10.184 128.423 7.95605 124.452 7.95605ZM128.193 13.646C128.193 16.1604 126.153 16.6908 124.441 16.6908L121.485 16.7085V10.5588H124.441C126.153 10.5588 128.193 11.0928 128.193 13.646Z" fill="#25425D"/>
    <path d="M147.109 17.2867L141.554 8.01789L141.522 7.96484H138.219L145.733 20.1935V28.0442H148.52V20.2112L156.024 7.96484H152.721L147.109 17.2867Z" fill="#25425D"/>
    <path d="M185.804 8.00247L180.033 23.9372L174.304 7.98479L174.279 7.91406H171.312L178.877 28.0217L178.905 28.0889H181.2L188.658 8.14746L188.715 8.00247H185.804Z" fill="#25425D"/>
    <path d="M195.613 7.91113C194.29 7.91113 193.219 8.98618 193.219 10.3052C193.219 11.6243 194.294 12.6993 195.613 12.6993C196.932 12.6993 198.007 11.6243 198.007 10.3052C198.007 8.98618 196.932 7.91113 195.613 7.91113ZM195.613 12.3669C194.478 12.3669 193.555 11.4439 193.555 10.3088C193.555 9.17361 194.478 8.25062 195.613 8.25062C196.748 8.25062 197.671 9.17361 197.671 10.3088C197.671 11.4439 196.748 12.3669 195.613 12.3669Z" fill="#25425D"/>
    <path d="M196.29 10.371C196.403 10.2579 196.46 10.1023 196.46 9.90776C196.46 9.76984 196.432 9.65314 196.375 9.55413C196.318 9.45511 196.234 9.38084 196.12 9.3278C196.007 9.27475 195.859 9.25 195.678 9.25H194.844V11.3753H195.141V10.5761H195.682C195.682 10.5761 195.696 10.5761 195.703 10.5761L196.163 11.3753H196.502L196.004 10.5337C196.12 10.4983 196.219 10.4488 196.29 10.3746V10.371ZM195.646 10.3109H195.141V9.51169H195.646C195.749 9.51169 195.837 9.52584 195.915 9.55059C195.993 9.57534 196.053 9.61778 196.096 9.67436C196.138 9.73094 196.163 9.80874 196.163 9.90776C196.163 10.0068 196.142 10.081 196.096 10.1412C196.053 10.2013 195.993 10.2437 195.915 10.2685C195.837 10.2968 195.749 10.3074 195.646 10.3074V10.3109Z" fill="#25425D"/>
  </g>
  <defs>
    <clipPath id="clip0_4104_68873">
      <rect width="198" height="34.2354" fill="white" transform="translate(0 0.881836)"/>
    </clipPath>
  </defs>
</svg>