<svg width="129" height="22" viewBox="0 0 129 22" fill="none" xmlns="http://www.w3.org/2000/svg">
<g clip-path="url(#clip0_3302_83023)">
<path d="M10.3125 4.40431V4.44976C10.3263 4.97471 10.7664 5.38603 11.3124 5.38603C11.8493 5.37239 12.2755 4.92926 12.2617 4.39977C12.2548 4.14297 12.1442 3.90436 11.9529 3.72483C11.7617 3.54758 11.5175 3.45441 11.2594 3.4635C10.7433 3.47713 10.3263 3.89073 10.3125 4.40431Z" fill="#25425D"/>
<path d="M22.3003 10.6879C22.2174 7.72233 20.9755 4.97488 18.8052 2.95237C16.674 0.966207 13.8977 -0.0814118 11.0016 0.00494292C10.9763 0.00494292 10.9509 0.00494292 10.9256 0.00494292C8.05481 0.00494292 5.25777 1.18437 3.23718 3.24779C1.1682 5.2794 -0.0114363 8.10411 8.35925e-05 11.0015C0.00469156 17.0645 4.93521 21.9981 10.9878 21.9981C11.0938 22.0004 11.1974 22.0027 11.3034 22.0027C11.4094 22.0027 11.5131 22.0027 11.6191 21.9981C14.5566 21.9163 17.2869 20.6937 19.3052 18.5553C21.3211 16.4192 22.3856 13.6263 22.3003 10.6879ZM1.61057 11.0015C1.61057 9.57668 1.94234 8.1541 2.57363 6.87696L10.3473 18.2599V20.3778C5.44209 19.9733 1.61057 15.8692 1.61057 10.9993V11.0015ZM20.6945 11.0015C20.6945 15.8692 16.8629 19.9756 11.9578 20.3801V18.3031L19.7452 6.90196C20.3673 8.17001 20.6968 9.58577 20.6968 11.0015H20.6945ZM18.8236 5.40438L11.1652 16.6169L3.49523 5.38393C5.29233 3.00691 8.15157 1.58887 11.1537 1.58887C14.1558 1.58887 17.0311 3.01372 18.8259 5.40438H18.8236Z" fill="#25425D"/>
<path d="M38.208 10.1926H32.2338V4.54541H30.3906V17.4554H32.2338V11.781H38.208V17.4554H40.0512V4.54541H38.208V10.1926Z" fill="#25425D"/>
<path d="M52.1612 4.54541H50.7788L45.9174 17.3623L45.8828 17.4554H47.8873L48.8526 14.733H54.1242L55.0895 17.4554H57.0433L52.1796 4.59086L52.1635 4.54541H52.1612ZM53.4744 13.0468H49.4609L51.4769 7.4292L53.4744 13.0468Z" fill="#25425D"/>
<path d="M66.6305 4.54541H62.875V17.4554H64.7182V11.8083H66.6305C69.257 11.8083 70.8906 10.4266 70.8906 8.20185C70.8906 5.97708 69.2179 4.54541 66.6305 4.54541ZM69.075 8.20185C69.075 9.81759 67.7456 10.1585 66.6305 10.1585L64.7182 10.1698V6.21796H66.6305C67.7456 6.21796 69.075 6.56111 69.075 8.20185Z" fill="#25425D"/>
<path d="M81.0914 4.54541H77.3359V17.4554H79.1653V11.8083H81.0914C83.718 11.8083 85.3515 10.4266 85.3515 8.20185C85.3515 5.97708 83.6788 4.54541 81.0914 4.54541ZM83.529 8.20185C83.529 9.81759 82.1996 10.1585 81.0845 10.1585L79.1584 10.1698V6.21796H81.0845C82.1996 6.21796 83.529 6.56111 83.529 8.20185Z" fill="#25425D"/>
<path d="M95.8547 10.5411L92.2352 4.58487L92.2144 4.55078H90.0625L94.9585 12.4091V17.454H96.774V12.4204L101.663 4.55078H99.5111L95.8547 10.5411Z" fill="#25425D"/>
<path d="M121.067 4.57488L117.307 14.8147L113.574 4.56352L113.558 4.51807H111.625L116.553 17.4395L116.572 17.4826H118.067L122.926 4.66805L122.963 4.57488H121.067Z" fill="#25425D"/>
<path d="M127.435 4.51709C126.573 4.51709 125.875 5.20793 125.875 6.05557C125.875 6.90321 126.575 7.59404 127.435 7.59404C128.294 7.59404 128.995 6.90321 128.995 6.05557C128.995 5.20793 128.294 4.51709 127.435 4.51709ZM127.435 7.38043C126.695 7.38043 126.094 6.78731 126.094 6.05784C126.094 5.32837 126.695 4.73525 127.435 4.73525C128.174 4.73525 128.776 5.32837 128.776 6.05784C128.776 6.78731 128.174 7.38043 127.435 7.38043Z" fill="#25425D"/>
<path d="M127.88 6.09684C127.954 6.02413 127.99 5.92414 127.99 5.79915C127.99 5.71052 127.972 5.63553 127.935 5.5719C127.898 5.50827 127.843 5.46055 127.769 5.42646C127.696 5.39237 127.599 5.37646 127.481 5.37646H126.938V6.74223H127.131V6.22865H127.484C127.484 6.22865 127.493 6.22865 127.497 6.22865L127.797 6.74223H128.018L127.693 6.20138C127.769 6.17865 127.834 6.14684 127.88 6.09912V6.09684ZM127.46 6.05821H127.131V5.54463H127.46C127.527 5.54463 127.585 5.55372 127.636 5.56963C127.686 5.58553 127.725 5.6128 127.753 5.64916C127.781 5.68552 127.797 5.73552 127.797 5.79915C127.797 5.86278 127.783 5.9105 127.753 5.94913C127.725 5.98777 127.686 6.01504 127.636 6.03094C127.585 6.04912 127.527 6.05594 127.46 6.05594V6.05821Z" fill="#25425D"/>
</g>
<defs>
<clipPath id="clip0_3302_83023">
<rect width="129" height="22" fill="white"/>
</clipPath>
</defs>
</svg>
