<svg width="140" height="24" viewBox="0 0 140 24" fill="none" xmlns="http://www.w3.org/2000/svg">
<g clip-path="url(#clip0_3301_82898)">
<path d="M11.1953 4.80484V4.85442C11.2103 5.42709 11.6879 5.8758 12.2805 5.8758C12.8631 5.86092 13.3257 5.3775 13.3107 4.79988C13.3032 4.51974 13.1832 4.25944 12.9756 4.06359C12.7681 3.87022 12.503 3.76858 12.223 3.77849C11.6629 3.79337 11.2103 4.24456 11.1953 4.80484Z" fill="#25425D"/>
<path d="M24.2019 11.6596C24.1119 8.42436 22.7642 5.42715 20.4087 3.22076C18.0958 1.05404 15.0828 -0.0888128 11.9397 0.00539228C11.9122 0.00539228 11.8847 0.00539228 11.8572 0.00539228C8.74165 0.00539228 5.70611 1.29204 3.51322 3.54304C1.26782 5.75934 -0.0124115 8.84084 9.07206e-05 12.0017C0.00509161 18.6159 5.35605 23.998 11.9247 23.998C12.0397 24.0004 12.1523 24.0029 12.2673 24.0029C12.3823 24.0029 12.4948 24.0029 12.6098 23.998C15.7979 23.9087 18.7609 22.575 20.9513 20.2421C23.1392 17.9118 24.2944 14.865 24.2019 11.6596ZM1.7479 12.0017C1.7479 10.4473 2.10797 8.89538 2.79309 7.50214L11.2296 19.9199V22.2304C5.90614 21.7891 1.7479 17.3119 1.7479 11.9992V12.0017ZM22.4591 12.0017C22.4591 17.3119 18.3009 21.7916 12.9774 22.2328V19.967L21.4289 7.52941C22.104 8.91274 22.4616 10.4572 22.4616 12.0017H22.4591ZM20.4287 5.89569L12.1173 18.1275L3.79327 5.87338C5.74362 3.28026 8.84667 1.73331 12.1048 1.73331C15.3628 1.73331 18.4834 3.2877 20.4312 5.89569H20.4287Z" fill="#25425D"/>
<path d="M41.4684 11.119H34.9847V4.9585H32.9844V19.0422H34.9847V12.8519H41.4684V19.0422H43.4687V4.9585H41.4684V11.119Z" fill="#25425D"/>
<path d="M56.6106 4.9585H55.1103L49.8344 18.9405L49.7969 19.0422H51.9723L53.02 16.0722H58.741L59.7887 19.0422H61.909L56.6306 5.00808L56.6131 4.9585H56.6106ZM58.0358 14.2327H53.6801L55.868 8.10445L58.0358 14.2327Z" fill="#25425D"/>
<path d="M72.3179 4.9585H68.2422V19.0422H70.2425V12.8816H72.3179C75.1684 12.8816 76.9412 11.3744 76.9412 8.94734C76.9412 6.52032 75.1259 4.9585 72.3179 4.9585ZM74.9709 8.94734C74.9709 10.71 73.5281 11.0818 72.3179 11.0818L70.2425 11.0942V6.7831H72.3179C73.5281 6.7831 74.9709 7.15744 74.9709 8.94734Z" fill="#25425D"/>
<path d="M88.0054 4.9585H83.9297V19.0422H85.915V12.8816H88.0054C90.8559 12.8816 92.6287 11.3744 92.6287 8.94734C92.6287 6.52032 90.8134 4.9585 88.0054 4.9585ZM90.6509 8.94734C90.6509 10.71 89.2081 11.0818 87.9979 11.0818L85.9075 11.0942V6.7831H87.9979C89.2081 6.7831 90.6509 7.15744 90.6509 8.94734Z" fill="#25425D"/>
<path d="M104.028 11.4992L100.1 5.00154L100.078 4.96436H97.7422L103.056 13.537V19.0406H105.026V13.5494L110.332 4.96436H107.997L104.028 11.4992Z" fill="#25425D"/>
<path d="M131.395 4.99069L127.315 16.1614L123.264 4.97829L123.246 4.92871H121.148L126.497 19.0248L126.517 19.0719H128.14L133.413 5.09233L133.453 4.99069H131.395Z" fill="#25425D"/>
<path d="M138.302 4.92773C137.367 4.92773 136.609 5.68138 136.609 6.60607C136.609 7.53077 137.37 8.28441 138.302 8.28441C139.235 8.28441 139.995 7.53077 139.995 6.60607C139.995 5.68138 139.235 4.92773 138.302 4.92773ZM138.302 8.05138C137.5 8.05138 136.847 7.40434 136.847 6.60855C136.847 5.81277 137.5 5.16573 138.302 5.16573C139.105 5.16573 139.757 5.81277 139.757 6.60855C139.757 7.40434 139.105 8.05138 138.302 8.05138Z" fill="#25425D"/>
<path d="M138.78 6.6511C138.861 6.57177 138.901 6.46269 138.901 6.32634C138.901 6.22966 138.881 6.14785 138.84 6.07844C138.8 6.00902 138.74 5.95696 138.66 5.91977C138.58 5.88259 138.475 5.86523 138.348 5.86523H137.758V7.35516H137.968V6.79489H138.35C138.35 6.79489 138.36 6.79489 138.365 6.79489L138.69 7.35516H138.931L138.578 6.76514C138.66 6.74035 138.73 6.70564 138.78 6.65358V6.6511ZM138.325 6.60896H137.968V6.04869H138.325C138.398 6.04869 138.46 6.0586 138.515 6.07596C138.57 6.09331 138.613 6.12306 138.643 6.16272C138.673 6.20239 138.69 6.25693 138.69 6.32634C138.69 6.39576 138.675 6.44782 138.643 6.48996C138.613 6.53211 138.57 6.56186 138.515 6.57921C138.46 6.59904 138.398 6.60648 138.325 6.60648V6.60896Z" fill="#25425D"/>
</g>
<defs>
<clipPath id="clip0_3301_82898">
<rect width="140" height="24" fill="#25425D"/>
</clipPath>
</defs>
</svg>
