<svg width="141" height="24" viewBox="0 0 141 24" fill="none" xmlns="http://www.w3.org/2000/svg">
<g clip-path="url(#clip0_4262_16225)">
<path d="M11.6953 4.80484V4.85442C11.7103 5.42709 12.1879 5.8758 12.7805 5.8758C13.3631 5.86092 13.8257 5.3775 13.8107 4.79988C13.8032 4.51974 13.6832 4.25944 13.4756 4.06359C13.2681 3.87022 13.003 3.76858 12.723 3.77849C12.1629 3.79337 11.7103 4.24456 11.6953 4.80484Z" fill="white"/>
<path d="M24.7019 11.6596C24.6119 8.42436 23.2642 5.42715 20.9087 3.22076C18.5958 1.05404 15.5828 -0.0888129 12.4397 0.00539228C12.4122 0.00539228 12.3847 0.00539228 12.3572 0.00539228C9.24165 0.00539228 6.20611 1.29204 4.01322 3.54304C1.76782 5.75934 0.487588 8.84084 0.500091 12.0017C0.505092 18.6159 5.85605 23.998 12.4247 23.998C12.5397 24.0004 12.6523 24.0029 12.7673 24.0029C12.8823 24.0029 12.9948 24.0029 13.1098 23.998C16.2979 23.9087 19.2609 22.575 21.4513 20.2421C23.6392 17.9118 24.7944 14.865 24.7019 11.6596ZM2.2479 12.0017C2.2479 10.4473 2.60797 8.89538 3.29309 7.50214L11.7296 19.9199V22.2304C6.40614 21.7891 2.2479 17.3119 2.2479 11.9992V12.0017ZM22.9591 12.0017C22.9591 17.3119 18.8009 21.7916 13.4774 22.2328V19.967L21.9289 7.52941C22.604 8.91273 22.9616 10.4572 22.9616 12.0017H22.9591ZM20.9287 5.89569L12.6173 18.1275L4.29327 5.87338C6.24362 3.28026 9.34667 1.73331 12.6048 1.73331C15.8628 1.73331 18.9834 3.2877 20.9312 5.89569H20.9287Z" fill="white"/>
<path d="M41.9684 11.119H35.4847V4.9585H33.4844V19.0422H35.4847V12.8519H41.9684V19.0422H43.9687V4.9585H41.9684V11.119Z" fill="white"/>
<path d="M57.1106 4.9585H55.6103L50.3344 18.9405L50.2969 19.0422H52.4723L53.52 16.0722H59.241L60.2887 19.0422H62.409L57.1306 5.00808L57.1131 4.9585H57.1106ZM58.5358 14.2327H54.1801L56.368 8.10445L58.5358 14.2327Z" fill="white"/>
<path d="M72.8179 4.9585H68.7422V19.0422H70.7425V12.8816H72.8179C75.6684 12.8816 77.4412 11.3744 77.4412 8.94734C77.4412 6.52032 75.6259 4.9585 72.8179 4.9585ZM75.4709 8.94734C75.4709 10.71 74.0281 11.0818 72.8179 11.0818L70.7425 11.0942V6.7831H72.8179C74.0281 6.7831 75.4709 7.15744 75.4709 8.94734Z" fill="white"/>
<path d="M88.5054 4.9585H84.4297V19.0422H86.415V12.8816H88.5054C91.3559 12.8816 93.1287 11.3744 93.1287 8.94734C93.1287 6.52032 91.3134 4.9585 88.5054 4.9585ZM91.1509 8.94734C91.1509 10.71 89.7081 11.0818 88.4979 11.0818L86.4075 11.0942V6.7831H88.4979C89.7081 6.7831 91.1509 7.15744 91.1509 8.94734Z" fill="white"/>
<path d="M104.528 11.4992L100.6 5.00154L100.578 4.96436H98.2422L103.556 13.537V19.0406H105.526V13.5494L110.832 4.96436H108.497L104.528 11.4992Z" fill="white"/>
<path d="M131.895 4.99069L127.815 16.1614L123.764 4.97829L123.746 4.92871H121.648L126.997 19.0248L127.017 19.0719H128.64L133.913 5.09233L133.953 4.99069H131.895Z" fill="white"/>
<path d="M138.802 4.92773C137.867 4.92773 137.109 5.68138 137.109 6.60607C137.109 7.53077 137.87 8.28441 138.802 8.28441C139.735 8.28441 140.495 7.53077 140.495 6.60607C140.495 5.68138 139.735 4.92773 138.802 4.92773ZM138.802 8.05138C138 8.05138 137.347 7.40434 137.347 6.60855C137.347 5.81277 138 5.16573 138.802 5.16573C139.605 5.16573 140.257 5.81277 140.257 6.60855C140.257 7.40434 139.605 8.05138 138.802 8.05138Z" fill="white"/>
<path d="M139.28 6.6511C139.361 6.57177 139.401 6.46269 139.401 6.32634C139.401 6.22966 139.381 6.14785 139.34 6.07844C139.3 6.00902 139.24 5.95696 139.16 5.91977C139.08 5.88259 138.975 5.86523 138.848 5.86523H138.258V7.35516H138.468V6.79489H138.85C138.85 6.79489 138.86 6.79489 138.865 6.79489L139.19 7.35516H139.431L139.078 6.76514C139.16 6.74035 139.23 6.70564 139.28 6.65358V6.6511ZM138.825 6.60896H138.468V6.04869H138.825C138.898 6.04869 138.96 6.0586 139.015 6.07596C139.07 6.09331 139.113 6.12306 139.143 6.16272C139.173 6.20239 139.19 6.25693 139.19 6.32634C139.19 6.39576 139.175 6.44782 139.143 6.48996C139.113 6.53211 139.07 6.56186 139.015 6.57921C138.96 6.59904 138.898 6.60648 138.825 6.60648V6.60896Z" fill="white"/>
</g>
<defs>
<clipPath id="clip0_4262_16225">
<rect width="140" height="24" fill="white" transform="translate(0.5)"/>
</clipPath>
</defs>
</svg>
