<svg width="79" height="20" viewBox="0 0 79 20" fill="none" xmlns="http://www.w3.org/2000/svg">
<g clip-path="url(#clip0_3311_38137)">
<path d="M25.2587 4C25.0961 4 24.958 4.11271 24.9326 4.26619L23.0506 15.6634C23.0437 15.705 23.0464 15.7476 23.0584 15.7881C23.0705 15.8287 23.0915 15.8663 23.1202 15.8983C23.1489 15.9303 23.1845 15.956 23.2246 15.9737C23.2647 15.9913 23.3083 16.0004 23.3524 16.0004H25.5843C25.7467 16.0004 25.885 15.8875 25.9104 15.7342L26.4633 12.3874C26.4885 12.2341 26.6268 12.1212 26.7894 12.1212H28.8186C31.1895 12.1212 33.2021 10.4692 33.5698 8.23077C33.9404 5.97338 32.0937 4.0049 29.4762 4H25.2587ZM27.4283 6.5443H29.0518C30.3885 6.5443 30.8237 7.29743 30.6861 8.13031C30.5485 8.96496 29.8725 9.57977 28.5795 9.57977H26.927L27.4283 6.5443ZM38.1091 7.31903C37.5456 7.32104 36.8971 7.4313 36.1691 7.72088C34.4991 8.38558 33.6971 9.75931 33.3566 10.7608C33.3566 10.7608 32.2726 13.8163 34.7216 15.495C34.7216 15.495 36.993 17.1111 39.5498 15.3954L39.5057 15.6634C39.4989 15.705 39.5016 15.7475 39.5136 15.788C39.5256 15.8285 39.5466 15.8661 39.5752 15.8981C39.6039 15.9301 39.6394 15.9559 39.6794 15.9735C39.7195 15.9912 39.763 16.0004 39.8071 16.0004H41.9259C42.0885 16.0004 42.2266 15.8875 42.252 15.7342L43.5408 7.92938C43.5477 7.88775 43.5451 7.84519 43.5331 7.80462C43.5212 7.76405 43.5001 7.72644 43.4715 7.69437C43.4428 7.6623 43.4073 7.63653 43.3672 7.61884C43.3271 7.60116 43.2835 7.59197 43.2394 7.59191H41.1206C40.9581 7.59191 40.8197 7.70485 40.7945 7.8581L40.7252 8.27821C40.7252 8.27821 39.8001 7.31302 38.1091 7.31903ZM38.1784 9.78425C38.4217 9.78425 38.6443 9.81633 38.8439 9.87759C39.7581 10.1578 40.2764 10.9965 40.1264 11.9055C39.9415 13.0249 38.9802 13.8491 37.7474 13.8491C37.5043 13.8491 37.2817 13.8172 37.0818 13.756C36.1679 13.4757 35.6463 12.6371 35.7963 11.728C35.9813 10.6087 36.9456 9.78425 38.1784 9.78425Z" fill="#003087"/>
<path d="M55.7743 4C55.6117 4 55.4736 4.11271 55.4482 4.26619L53.5662 15.6634C53.5594 15.705 53.562 15.7476 53.5741 15.7881C53.5861 15.8287 53.6072 15.8663 53.6359 15.8983C53.6645 15.9303 53.7001 15.956 53.7402 15.9737C53.7803 15.9913 53.8239 16.0004 53.868 16.0004H56.0999C56.2623 16.0004 56.4006 15.8875 56.4261 15.7342L56.9789 12.3874C57.0041 12.2341 57.1424 12.1212 57.305 12.1212H59.3342C61.7051 12.1212 63.7175 10.4692 64.0849 8.23077C64.4558 5.97338 62.6093 4.0049 59.9918 4H55.7743ZM57.9439 6.5443H59.5675C60.9041 6.5443 61.3394 7.29743 61.2017 8.13031C61.0641 8.96496 60.3883 9.57977 59.0951 9.57977H57.4426L57.9439 6.5443ZM68.6245 7.31903C68.061 7.32104 67.4125 7.4313 66.6845 7.72088C65.0145 8.38558 64.2125 9.75931 63.8719 10.7608C63.8719 10.7608 62.7884 13.8163 65.2375 15.495C65.2375 15.495 67.5084 17.1111 70.0654 15.3954L70.0213 15.6634C70.0145 15.705 70.0172 15.7476 70.0292 15.7881C70.0412 15.8287 70.0623 15.8663 70.091 15.8983C70.1197 15.9303 70.1553 15.956 70.1954 15.9737C70.2355 15.9913 70.2791 16.0004 70.3232 16.0004H72.4417C72.6043 16.0004 72.7424 15.8875 72.7678 15.7342L74.0571 7.92938C74.064 7.88772 74.0614 7.84511 74.0494 7.80451C74.0374 7.76391 74.0164 7.72627 73.9877 7.6942C73.959 7.66212 73.9233 7.63636 73.8832 7.61871C73.8431 7.60105 73.7994 7.5919 73.7553 7.59191H71.6365C71.4739 7.59191 71.3356 7.70485 71.3104 7.8581L71.2411 8.27821C71.2411 8.27821 70.3155 7.31302 68.6245 7.31903ZM68.6938 9.78425C68.9371 9.78425 69.1597 9.81633 69.3593 9.87759C70.2735 10.1578 70.7918 10.9965 70.6418 11.9055C70.4569 13.0249 69.4956 13.8491 68.2627 13.8491C68.0197 13.8491 67.7971 13.8172 67.5972 13.756C66.6833 13.4757 66.1617 12.6371 66.3117 11.728C66.4967 10.6087 67.461 9.78425 68.6938 9.78425Z" fill="#0070E0"/>
<path d="M44.5528 7.59397C44.3848 7.59397 44.2654 7.75057 44.3167 7.90316L46.6396 14.7865L44.5392 18.0302C44.4373 18.1877 44.5558 18.3911 44.7497 18.3911H47.2321C47.3031 18.391 47.3729 18.3735 47.4347 18.3402C47.4965 18.3068 47.5483 18.2589 47.585 18.2009L54.0724 7.95261C54.172 7.79512 54.0531 7.59375 53.8604 7.59375H51.3782C51.3065 7.59381 51.2361 7.61169 51.1738 7.64563C51.1116 7.67957 51.0596 7.7284 51.0231 7.78732L48.4696 11.9043L47.1733 7.81784C47.1311 7.68486 47.0025 7.59375 46.8572 7.59375L44.5528 7.59397Z" fill="#003087"/>
<path d="M76.4623 4C76.3 4 76.1617 4.11294 76.1362 4.26619L74.2538 15.663C74.2468 15.7046 74.2495 15.7472 74.2615 15.7878C74.2735 15.8284 74.2945 15.8661 74.3232 15.8981C74.3519 15.9302 74.3875 15.956 74.4277 15.9736C74.4678 15.9913 74.5114 16.0004 74.5556 16.0004H76.7875C76.9499 16.0004 77.0882 15.8875 77.1136 15.7342L78.9956 4.33703C79.0025 4.29543 78.9998 4.25292 78.9878 4.2124C78.9758 4.17189 78.9547 4.13433 78.9261 4.10231C78.8975 4.07029 78.8619 4.04457 78.8219 4.02691C78.7819 4.00925 78.7383 4.00007 78.6942 4H76.4623Z" fill="#0070E0"/>
<path d="M6.65723 4C6.51345 4.00011 6.37444 4.04918 6.26515 4.1384C6.15587 4.22761 6.08347 4.35111 6.06099 4.48672L5.07031 10.4868C5.1165 10.2066 5.36935 10.0001 5.66654 10.0001H8.56955C11.4912 10.0001 13.9704 7.9648 14.4234 5.20666C14.4571 5.00074 14.4762 4.79288 14.4806 4.58451C13.7381 4.21273 12.8659 4 11.9102 4H6.65723Z" fill="#001C64"/>
<path d="M14.4759 4.58594C14.4716 4.79431 14.4525 5.00217 14.4188 5.20809C13.9658 7.96623 11.4864 10.0015 8.56494 10.0015H5.66192C5.36497 10.0015 5.11189 10.2078 5.0657 10.4883L4.15478 16.0019L3.58421 19.4608C3.57308 19.5276 3.57725 19.596 3.59646 19.6611C3.61566 19.7262 3.64945 19.7866 3.69547 19.8381C3.74148 19.8895 3.79864 19.9308 3.863 19.9591C3.92736 19.9875 3.99738 20.0021 4.06825 20.0021H7.21922C7.363 20.002 7.50201 19.9529 7.6113 19.8637C7.72058 19.7745 7.79296 19.651 7.81545 19.5154L8.64541 14.4885C8.6679 14.3528 8.74036 14.2292 8.84975 14.14C8.95913 14.0508 9.09826 14.0018 9.24212 14.0018H11.0973C14.019 14.0018 16.4981 11.9664 16.9511 9.20831C17.2728 7.25074 16.2404 5.46938 14.4759 4.58594Z" fill="#0070E0"/>
<path d="M3.07495 0C2.778 0 2.52492 0.20627 2.47873 0.486272L0.00608554 15.4589C-0.0408012 15.7431 0.189207 16.0002 0.490588 16.0002H4.15732L5.06777 10.4866L6.05844 4.48649C6.08092 4.35088 6.15332 4.22738 6.26261 4.13817C6.37189 4.04896 6.5109 3.99989 6.65468 3.99977H11.9076C12.8636 3.99977 13.7355 4.21272 14.478 4.58428C14.5289 2.07317 12.359 0 9.37574 0H3.07495Z" fill="#003087"/>
</g>
<defs>
<clipPath id="clip0_3311_38137">
<rect width="79" height="20" fill="white"/>
</clipPath>
</defs>
</svg>
