<svg xmlns="http://www.w3.org/2000/svg" width="20" height="20" viewBox="0 0 20 20" fill="none">
  <g clip-path="url(#clip0_2855_91496)">
    <path d="M18.1255 15.6255C18.1255 15.7913 18.0596 15.9502 17.9424 16.0674C17.8252 16.1846 17.6663 16.2505 17.5005 16.2505C17.3347 16.2505 17.1758 16.1846 17.0586 16.0674C16.9413 15.9502 16.8755 15.7913 16.8755 15.6255C16.8734 13.8028 16.1484 12.0553 14.8596 10.7664C13.5707 9.47755 11.8232 8.75256 10.0005 8.75049H6.87549V11.8755C6.87559 11.9992 6.83899 12.1201 6.77032 12.223C6.70165 12.3259 6.604 12.406 6.48974 12.4534C6.37547 12.5007 6.24973 12.5131 6.12843 12.4889C6.00712 12.4648 5.89571 12.4052 5.8083 12.3177L2.0583 8.56768C2.00019 8.50963 1.95409 8.4407 1.92264 8.36483C1.89119 8.28896 1.875 8.20763 1.875 8.12549C1.875 8.04336 1.89119 7.96203 1.92264 7.88615C1.95409 7.81028 2.00019 7.74135 2.0583 7.6833L5.8083 3.9333C5.89571 3.8458 6.00712 3.78619 6.12843 3.76204C6.24973 3.73788 6.37547 3.75026 6.48974 3.7976C6.604 3.84495 6.70165 3.92513 6.77032 4.028C6.83899 4.13087 6.87559 4.25181 6.87549 4.37549V7.50049H10.0005C12.1547 7.50277 14.22 8.35952 15.7432 9.88276C17.2665 11.406 18.1232 13.4713 18.1255 15.6255Z" fill="#7C8E9E"/>
  </g>
  <defs>
    <clipPath id="clip0_2855_91496">
      <rect width="20" height="20" fill="white"/>
    </clipPath>
  </defs>
</svg>