<svg width="18" height="18" viewBox="0 0 18 18" fill="none" xmlns="http://www.w3.org/2000/svg">
<path d="M9 11.8125C10.5533 11.8125 11.8125 10.5533 11.8125 9C11.8125 7.4467 10.5533 6.1875 9 6.1875C7.4467 6.1875 6.1875 7.4467 6.1875 9C6.1875 10.5533 7.4467 11.8125 9 11.8125Z" stroke="#E7E6E6" stroke-width="1.5" stroke-linecap="round" stroke-linejoin="round"/>
<path d="M9.14292 14.4921C9.0487 14.4921 8.95378 14.4921 8.86167 14.4921L6.60816 15.75C5.73089 15.4549 4.91719 14.9969 4.2098 14.4L4.20136 11.8688C4.15144 11.79 4.10433 11.7105 4.06074 11.629L1.81988 10.3528C1.64337 9.46005 1.64337 8.54136 1.81988 7.64859L4.05863 6.37594C4.10433 6.29508 4.15144 6.21492 4.19925 6.13617L4.2105 3.60492C4.91726 3.00631 5.73074 2.54661 6.60816 2.25L8.85816 3.50789C8.95238 3.50789 9.0473 3.50789 9.13941 3.50789L11.3894 2.25C12.2667 2.54509 13.0804 3.00311 13.7878 3.6L13.7962 6.13125C13.8461 6.21 13.8932 6.28945 13.9368 6.37102L16.1763 7.64648C16.3528 8.53925 16.3528 9.45794 16.1763 10.3507L13.9375 11.6234C13.8918 11.7042 13.8447 11.7844 13.7969 11.8631L13.7857 14.3944C13.0794 14.9931 12.2664 15.453 11.3894 15.75L9.14292 14.4921Z" stroke="#E7E6E6" stroke-width="1.5" stroke-linecap="round" stroke-linejoin="round"/>
</svg>
