<svg xmlns="http://www.w3.org/2000/svg" width="42" height="42" viewBox="0 0 42 42" fill="none">
  <g clip-path="url(#clip0_1695_121808)">
    <path d="M24.9375 34.1256V26.2506C24.9375 25.9025 24.7992 25.5687 24.5531 25.3225C24.3069 25.0764 23.9731 24.9381 23.625 24.9381H18.375C18.0269 24.9381 17.6931 25.0764 17.4469 25.3225C17.2008 25.5687 17.0625 25.9025 17.0625 26.2506V34.1256C17.0625 34.4737 16.9242 34.8076 16.6781 35.0537C16.4319 35.2998 16.0981 35.4381 15.75 35.4381H7.875C7.5269 35.4381 7.19306 35.2998 6.94692 35.0537C6.70078 34.8076 6.5625 34.4737 6.5625 34.1256V18.9564C6.56252 18.7735 6.60076 18.5926 6.67479 18.4254C6.74881 18.2581 6.85698 18.1082 6.99234 17.9852L20.1173 5.59187C20.359 5.3719 20.674 5.25 21.0008 5.25C21.3276 5.25 21.6426 5.3719 21.8843 5.59187L35.0093 17.9852C35.1447 18.1082 35.2528 18.2581 35.3269 18.4254C35.4009 18.5926 35.4391 18.7735 35.4391 18.9564V34.1256C35.4391 34.4737 35.3009 34.8076 35.0547 35.0537C34.8086 35.2998 34.4747 35.4381 34.1266 35.4381H26.25C25.9019 35.4381 25.5681 35.2998 25.3219 35.0537C25.0758 34.8076 24.9375 34.4737 24.9375 34.1256Z" stroke="#25425D" stroke-linecap="round" stroke-linejoin="round"/>
    <path d="M28 14L23.1059 8.81801C22.3483 8.01582 21.0406 8.85154 21.4504 9.87602L24.3039 17.0097C24.4266 17.3165 24.6929 17.5429 25.0154 17.6145L30.1477 18.755C31.1243 18.9721 31.7792 17.7792 31.0718 17.0718L28 14Z" fill="#D1E3F2"/>
  </g>
  <defs>
    <clipPath id="clip0_1695_121808">
      <rect width="42" height="42" fill="white"/>
    </clipPath>
  </defs>
</svg>