<svg width="80" height="18" viewBox="0 0 80 18" fill="none" xmlns="http://www.w3.org/2000/svg">
<g clip-path="url(#clip0_3311_38129)">
<path d="M20.5392 5.75383C19.8975 4.47565 18.6782 3.64788 16.8386 3.64788C16.2748 3.65756 15.7208 3.78992 15.2194 4.03474C14.718 4.27956 14.2826 4.63032 13.9467 5.05996L13.8782 5.13706V0.109554C13.8782 0.0804971 13.866 0.0526309 13.8444 0.0320847C13.8227 0.0115386 13.7933 0 13.7627 0H11.1659C11.136 0.00105063 11.1077 0.0130507 11.087 0.033484C11.0662 0.0539174 11.0547 0.0811866 11.0547 0.109554V14.4982C11.0547 14.5262 11.0664 14.553 11.0873 14.5728C11.1081 14.5926 11.1364 14.6037 11.1659 14.6037H13.9467C13.9766 14.6037 14.0053 14.5927 14.0269 14.5731C14.0484 14.5534 14.0611 14.5265 14.0622 14.4982V8.36293C14.0476 8.08971 14.0942 7.81667 14.199 7.56179C14.3038 7.30692 14.4644 7.07601 14.6702 6.8843C14.8759 6.69259 15.1222 6.54443 15.3928 6.44959C15.6633 6.35475 15.952 6.31538 16.2397 6.33408C17.7071 6.33408 18.075 7.47836 18.075 8.64698V14.5063C18.075 14.5343 18.0867 14.5611 18.1076 14.5809C18.1284 14.6007 18.1567 14.6118 18.1862 14.6118H20.9627C20.9926 14.6118 21.0214 14.6008 21.0429 14.5812C21.0645 14.5615 21.0771 14.5347 21.0782 14.5063V8.29801C21.0832 8.08931 21.0732 7.88054 21.0483 7.67313C21.0025 7.0094 20.83 6.35906 20.5392 5.75383Z" fill="#562DEC"/>
<path d="M6.62935 7.87901C6.62935 7.87901 5.21331 7.56251 4.69138 7.43672C4.16946 7.31093 3.25823 7.03094 3.25823 6.38577C3.25823 5.74059 3.99405 5.52148 4.73844 5.52148C5.48282 5.52148 6.31278 5.6919 6.37695 6.4791C6.38013 6.50707 6.39413 6.53293 6.41626 6.55167C6.43839 6.57042 6.46707 6.5807 6.49673 6.58054H9.23898H9.28603L9.32453 6.55619C9.33559 6.5448 9.34398 6.53132 9.34914 6.51663C9.35431 6.50194 9.35612 6.48639 9.35448 6.47099C9.18336 3.95926 6.86037 3.0625 4.71705 3.0625C2.17588 3.0625 0.319192 4.65313 0.319192 6.40606C0.319192 7.68424 0.699937 8.88532 3.69887 9.7212C4.22507 9.86728 4.93952 10.0539 5.56412 10.2203C6.31278 10.4191 6.71919 10.7194 6.71919 11.1901C6.71919 11.7379 5.86357 12.1193 5.05929 12.1193C3.86571 12.1193 3.01865 11.7135 2.9502 10.9466C2.94606 10.9194 2.93163 10.8945 2.9096 10.8766C2.88757 10.8587 2.85943 10.849 2.83042 10.8492H0.0924541H0.0453885L0.00688741 10.8736C-0.00418355 10.8843 -0.0129059 10.897 -0.01878 10.9109C-0.0246541 10.9249 -0.027558 10.9398 -0.0273314 10.9548C0.0967327 13.3245 2.51385 14.6067 4.76412 14.6067C8.11813 14.6067 9.63256 12.8172 9.63256 11.1414C9.65822 10.3542 9.46999 8.56071 6.62935 7.87901Z" fill="#562DEC"/>
<path d="M41.9355 3.63717C41.2911 3.65702 40.6594 3.81304 40.0866 4.09383C39.5137 4.37462 39.0142 4.77311 38.6243 5.26026V3.7305C38.6243 3.70252 38.6126 3.67569 38.5917 3.65591C38.5709 3.63612 38.5426 3.625 38.5131 3.625H35.912C35.8825 3.625 35.8542 3.63612 35.8334 3.65591C35.8125 3.67569 35.8008 3.70252 35.8008 3.7305V17.8513C35.8008 17.8793 35.8125 17.9062 35.8334 17.9259C35.8542 17.9457 35.8825 17.9568 35.912 17.9568H38.697C38.7265 17.9568 38.7548 17.9457 38.7757 17.9259C38.7966 17.9062 38.8083 17.8793 38.8083 17.8513V13.2134H38.8511C39.2379 13.669 39.731 14.0334 40.2914 14.2777C40.8519 14.522 41.4645 14.6397 42.081 14.6214C45.05 14.6214 47.527 12.2842 47.527 9.12725C47.5434 8.41767 47.4115 7.71203 47.1388 7.05109C46.866 6.39016 46.4579 5.78702 45.938 5.27654C45.4181 4.76606 44.7967 4.35837 44.1097 4.07698C43.4228 3.7956 42.6838 3.64611 41.9355 3.63717ZM41.6789 11.9311C41.0923 11.9448 40.5148 11.7925 40.02 11.4934C39.5252 11.1944 39.1356 10.7623 38.9008 10.2523C38.6661 9.74235 38.5969 9.17757 38.7021 8.63011C38.8073 8.08265 39.0821 7.57734 39.4915 7.17869C39.9008 6.78004 40.4261 6.50614 41.0004 6.39194C41.5746 6.27774 42.1716 6.32842 42.7154 6.53753C43.2591 6.74664 43.7247 7.10468 44.0529 7.56595C44.3811 8.02721 44.557 8.57077 44.558 9.12725C44.5637 9.49082 44.4936 9.85188 44.3519 10.1897C44.2101 10.5276 43.9995 10.8355 43.732 11.096C43.4646 11.3565 43.1455 11.5643 42.7932 11.7077C42.4409 11.851 42.0622 11.9269 41.6789 11.9311Z" fill="#562DEC"/>
<path d="M27.5511 3.01023C25.7724 2.96693 24.0321 3.50568 22.6228 4.53594H22.5928C22.539 4.57068 22.501 4.62354 22.4867 4.68382C22.4724 4.74409 22.4828 4.80727 22.5158 4.86055L23.5426 6.53638C23.5622 6.56761 23.5889 6.59436 23.6207 6.6147C23.6525 6.63503 23.6886 6.64847 23.7265 6.65406C23.7634 6.6606 23.8013 6.65925 23.8376 6.65012C23.8739 6.641 23.9075 6.62433 23.9361 6.60131L24.0174 6.53638C24.5522 6.13061 25.4078 5.54225 27.4827 5.38806C28.0002 5.32712 28.5255 5.37161 29.0235 5.51855C29.5214 5.66549 29.9806 5.91152 30.3704 6.24018C30.7906 6.64095 31.121 7.11827 31.3416 7.64339C31.5622 8.16851 31.6683 8.73055 31.6538 9.29563C31.6538 11.5152 30.2762 12.9111 28.0602 12.9476C26.2335 12.9476 25.0099 12.0346 25.0099 10.7037C25.0139 10.3744 25.1078 10.0518 25.2825 9.76735C25.4572 9.48286 25.7067 9.24623 26.0067 9.08058C26.0562 9.04635 26.0912 8.99645 26.1054 8.93989C26.1195 8.88333 26.1118 8.82385 26.0837 8.77219L25.1639 7.1207C25.1466 7.09124 25.1234 7.06532 25.0955 7.04443C25.0676 7.02354 25.0356 7.00809 25.0014 6.99897C24.9666 6.98895 24.93 6.98593 24.8939 6.99013C24.8578 6.99432 24.823 7.00563 24.7917 7.02331C24.0857 7.37154 23.4996 7.90445 23.1031 8.55889C22.7065 9.21333 22.5161 9.96188 22.5543 10.7158C22.6399 13.3209 24.9201 15.3092 27.8891 15.3903H28.2399C29.0577 15.3892 29.8669 15.2319 30.6193 14.928C31.3718 14.6241 32.052 14.1797 32.6196 13.6213C33.1872 13.0628 33.6306 12.4018 33.9233 11.6775C34.216 10.9532 34.352 10.1804 34.3233 9.40519C34.3233 6.32133 31.949 3.01023 27.5511 3.01023Z" fill="#562DEC"/>
<path d="M58.4915 4.60156H56.7247C56.6827 4.60156 56.6425 4.61738 56.6128 4.64554C56.5831 4.67369 56.5664 4.71188 56.5664 4.7517V8.26974C56.5675 8.30885 56.5847 8.346 56.6143 8.37328C56.6438 8.40057 56.6834 8.41582 56.7247 8.41581H58.4915C59.0021 8.3842 59.4809 8.16953 59.8308 7.81535C60.1806 7.46117 60.3753 6.99401 60.3753 6.50868C60.3753 6.02335 60.1806 5.5562 59.8308 5.20202C59.4809 4.84784 59.0021 4.63317 58.4915 4.60156Z" fill="#562DEC"/>
<path d="M63.9258 10.831C63.9258 11.3423 64.3793 11.6425 65.1707 11.6425C66.2488 11.6425 66.8819 11.0907 66.8819 10.1087V9.8125L65.2691 9.89366C64.422 9.93018 63.9258 10.2629 63.9258 10.831Z" fill="#562DEC"/>
<path d="M77.0259 0.0313553H53.2655C52.4788 0.0324304 51.7247 0.329601 51.1689 0.857596C50.613 1.38559 50.3008 2.10125 50.3008 2.84741V15.1828C50.3008 15.929 50.613 16.6447 51.1689 17.1727C51.7247 17.7007 52.4788 17.9978 53.2655 17.9989H77.0259C77.4176 18.0021 77.8061 17.9318 78.169 17.7919C78.5319 17.6521 78.862 17.4456 79.1404 17.1842C79.4188 16.9228 79.6398 16.6118 79.7909 16.269C79.942 15.9262 80.02 15.5584 80.0206 15.1869V2.85147C80.0211 2.47926 79.9439 2.11063 79.7934 1.7669C79.6428 1.42318 79.4219 1.11117 79.1434 0.848928C78.865 0.586682 78.5344 0.379403 78.171 0.23907C77.8075 0.0987379 77.4183 0.0281369 77.0259 0.0313553ZM58.5874 9.81044H56.7179C56.6759 9.81044 56.6357 9.82625 56.606 9.85441C56.5763 9.88257 56.5596 9.92075 56.5596 9.96057V12.4845C56.5596 12.5243 56.5429 12.5625 56.5132 12.5906C56.4836 12.6188 56.4433 12.6346 56.4013 12.6346H55.0879C55.046 12.6346 55.0057 12.6188 54.976 12.5906C54.9463 12.5625 54.9297 12.5243 54.9297 12.4845V3.37085C54.9297 3.33104 54.9463 3.29285 54.976 3.26469C55.0057 3.23654 55.046 3.22072 55.0879 3.22072H58.5874C59.5076 3.22072 60.3901 3.56743 61.0407 4.18458C61.6914 4.80172 62.0569 5.63874 62.0569 6.51152C62.0569 7.38429 61.6914 8.22133 61.0407 8.83847C60.3901 9.45562 59.5076 9.80233 58.5874 9.80233V9.81044ZM68.427 12.4804C68.4307 12.4992 68.4307 12.5184 68.427 12.5372C68.4109 12.574 68.3801 12.6031 68.3414 12.6184H68.2815H67.0409H66.981C66.9423 12.6031 66.9115 12.574 66.8954 12.5372C66.8915 12.5185 66.8915 12.4992 66.8954 12.4804V12.2085C66.8981 12.1847 66.8925 12.1606 66.8793 12.1401C66.8662 12.1196 66.8463 12.1037 66.8227 12.0949C66.7989 12.0857 66.7724 12.0842 66.7476 12.0908C66.7228 12.0974 66.7011 12.1117 66.6858 12.1314C66.4319 12.3661 66.1279 12.5466 65.7944 12.6606C65.4609 12.7747 65.1055 12.8198 64.7521 12.7929C63.3361 12.7929 62.3992 12.0949 62.3992 10.8857C62.3854 10.5913 62.4494 10.2982 62.5854 10.0332C62.7214 9.76817 62.925 9.53957 63.1778 9.36815C63.6869 9.00296 64.4612 8.8163 65.6548 8.77167L66.8997 8.73109V8.38618C66.8997 7.68825 66.4034 7.39205 65.6163 7.39205C64.8291 7.39205 64.3329 7.65985 64.2045 8.09402C64.1957 8.12493 64.1761 8.1521 64.1489 8.17112C64.1218 8.19041 64.0886 8.20043 64.0548 8.19953H62.8056C62.7827 8.20044 62.7598 8.19648 62.7387 8.18794C62.7176 8.17939 62.6987 8.16648 62.6836 8.15014C62.6684 8.13381 62.6573 8.11446 62.651 8.09351C62.6447 8.07257 62.6435 8.05056 62.6473 8.0291C62.8313 6.99438 63.7339 6.21125 65.642 6.21125C67.6826 6.21125 68.4184 7.11206 68.4184 8.82847L68.427 12.4804ZM76.1746 6.56427L73.4109 13.5598C72.7821 15.1828 71.6997 15.5886 70.4762 15.5886C70.2495 15.594 70.0233 15.568 69.8045 15.5115C69.7706 15.5027 69.7406 15.4838 69.719 15.4574C69.6974 15.4311 69.6853 15.3988 69.6847 15.3654V14.3023C69.6799 14.2809 69.6799 14.2588 69.6847 14.2374C69.6995 14.2065 69.7249 14.1812 69.7568 14.1657C69.7886 14.1503 69.8251 14.1455 69.8601 14.1522C70.0505 14.1868 70.2439 14.2045 70.4377 14.2049C70.7706 14.2209 71.0996 14.1304 71.3718 13.9479C71.6441 13.7654 71.8439 13.5016 71.9393 13.1986L72.0206 12.9552C72.0333 12.9224 72.0333 12.8864 72.0206 12.8537L69.4537 6.55616C69.4479 6.5335 69.4479 6.50984 69.4537 6.48717C69.4582 6.46362 69.4685 6.44139 69.4837 6.42225C69.4982 6.40337 69.5172 6.38806 69.5393 6.37762C69.5632 6.37227 69.5881 6.37227 69.612 6.37762H70.8698C70.9021 6.37788 70.9336 6.38729 70.9603 6.40464C70.987 6.42199 71.0076 6.44648 71.0195 6.475L72.7735 10.9385C72.7853 10.9677 72.8061 10.9928 72.8332 11.0105C72.8603 11.0282 72.8924 11.0377 72.9254 11.0377C72.9583 11.0377 72.9904 11.0282 73.0176 11.0105C73.0447 10.9928 73.0655 10.9677 73.0772 10.9385L74.6002 6.50746C74.6109 6.47786 74.6311 6.45217 74.658 6.43399C74.6848 6.4158 74.717 6.40601 74.75 6.40601H76.0334C76.0583 6.40617 76.0828 6.41175 76.105 6.4223C76.1273 6.43285 76.1467 6.44811 76.1617 6.46689C76.1769 6.48603 76.1872 6.50826 76.1917 6.53181C76.1973 6.5545 76.1973 6.57811 76.1917 6.60079L76.1746 6.56427Z" fill="#562DEC"/>
</g>
<defs>
<clipPath id="clip0_3311_38129">
<rect width="80" height="18" fill="white"/>
</clipPath>
</defs>
</svg>
