<svg xmlns="http://www.w3.org/2000/svg" width="16" height="16" viewBox="0 0 16 16" fill="none">
  <g clip-path="url(#clip0_2754_17539)">
    <path d="M13.9811 2.63562C14.0052 2.55009 14.006 2.45968 13.9836 2.3737C13.9612 2.28772 13.9162 2.20928 13.8534 2.14645C13.7905 2.08361 13.7121 2.03866 13.6261 2.01621C13.5401 1.99377 13.4497 1.99464 13.3642 2.01874L1.36419 5.65749C1.26622 5.68514 1.17903 5.74204 1.11426 5.82057C1.04949 5.89911 1.01024 5.99554 1.00174 6.09698C0.993251 6.19842 1.01592 6.30004 1.06673 6.38825C1.11754 6.47646 1.19406 6.54706 1.28607 6.59062L6.63732 9.12437C6.7415 9.17378 6.82541 9.25768 6.87482 9.36187L9.40919 14.7125C9.45275 14.8045 9.52335 14.881 9.61156 14.9318C9.69977 14.9826 9.80139 15.0053 9.90283 14.9968C10.0043 14.9883 10.1007 14.9491 10.1792 14.8843C10.2578 14.8195 10.3147 14.7323 10.3423 14.6344L13.9811 2.63562Z" stroke="#7C8E9E" stroke-linecap="round" stroke-linejoin="round"/>
    <path d="M6.77344 9.22375L9.99719 6" stroke="#7C8E9E" stroke-linecap="round" stroke-linejoin="round"/>
  </g>
  <defs>
    <clipPath id="clip0_2754_17539">
      <rect width="16" height="16" fill="white"/>
    </clipPath>
  </defs>
</svg>