<svg width="74" height="74" viewBox="0 0 74 74" fill="none" xmlns="http://www.w3.org/2000/svg">
<rect width="74" height="74" rx="37" fill="#FBF8F7"/>
<g clip-path="url(#clip0_1639_91533)">
<path d="M31.75 40.9375H42.25" stroke="#25425D" stroke-linecap="round" stroke-linejoin="round"/>
<path d="M31.75 35.6875H42.25" stroke="#25425D" stroke-linecap="round" stroke-linejoin="round"/>
<path d="M42.25 22.5625H48.8125C49.1606 22.5625 49.4944 22.7008 49.7406 22.9469C49.9867 23.1931 50.125 23.5269 50.125 23.875V51.4375C50.125 51.7856 49.9867 52.1194 49.7406 52.3656C49.4944 52.6117 49.1606 52.75 48.8125 52.75H25.1875C24.8394 52.75 24.5056 52.6117 24.2594 52.3656C24.0133 52.1194 23.875 51.7856 23.875 51.4375V23.875C23.875 23.5269 24.0133 23.1931 24.2594 22.9469C24.5056 22.7008 24.8394 22.5625 25.1875 22.5625H31.75" stroke="#25425D" stroke-linecap="round" stroke-linejoin="round"/>
<path d="M30.4375 27.8125V26.5C30.4375 24.7595 31.1289 23.0903 32.3596 21.8596C33.5903 20.6289 35.2595 19.9375 37 19.9375C38.7405 19.9375 40.4097 20.6289 41.6404 21.8596C42.8711 23.0903 43.5625 24.7595 43.5625 26.5V27.8125H30.4375Z" stroke="#25425D" stroke-linecap="round" stroke-linejoin="round"/>
</g>
<path d="M40.2271 24.8668C40.9003 24.9573 41.5612 24.4919 41.3707 23.84C41.254 23.4409 41.0387 23.0538 40.7371 22.7008C40.4355 22.3478 40.0535 22.0358 39.6129 21.7827C39.1722 21.5295 38.6816 21.3402 38.169 21.2254C37.6564 21.1107 37.1319 21.0728 36.6254 21.1139C36.1188 21.155 35.6403 21.2743 35.2169 21.465C34.7936 21.6557 34.4338 21.914 34.1582 22.2253C33.7082 22.7334 34.1081 23.4354 34.7557 23.6386L35.302 23.8101C36.7647 24.2692 38.2638 24.6027 39.7831 24.8071L40.2271 24.8668Z" fill="#D1E3F2"/>
<defs>
<clipPath id="clip0_1639_91533">
<rect width="42" height="42" fill="white" transform="translate(16 16)"/>
</clipPath>
</defs>
</svg>
