<svg width="28" height="28" viewBox="0 0 28 28" fill="none" xmlns="http://www.w3.org/2000/svg">
<g id="Frame" clip-path="url(#clip0_1872_91812)">
<path id="Vector" d="M18.375 11.1562C20.1588 12.4402 22.3021 13.1291 24.5 13.125V8.75C22.8755 8.75 21.3176 8.10469 20.169 6.95603C19.0203 5.80737 18.375 4.24945 18.375 2.625H14V17.0625C13.9998 17.6105 13.8525 18.1484 13.5736 18.6201C13.2946 19.0918 12.8942 19.48 12.4141 19.7442C11.934 20.0084 11.3918 20.139 10.844 20.1223C10.2963 20.1056 9.76307 19.9422 9.29998 19.6492C8.83689 19.3561 8.46091 18.9442 8.21126 18.4564C7.96161 17.9686 7.84743 17.4227 7.88063 16.8757C7.91383 16.3287 8.09319 15.8006 8.40001 15.3465C8.70684 14.8925 9.12987 14.5291 9.625 14.2942V9.625C6.14359 10.2452 3.5 13.4028 3.5 17.0625C3.5 19.035 4.28359 20.9268 5.67839 22.3216C7.0732 23.7164 8.96495 24.5 10.9375 24.5C12.91 24.5 14.8018 23.7164 16.1966 22.3216C17.5914 20.9268 18.375 19.035 18.375 17.0625V11.1562Z" stroke="#25425D" stroke-width="1.5" stroke-linecap="round" stroke-linejoin="round"/>
</g>
<defs>
<clipPath id="clip0_1872_91812">
<rect width="28" height="28" fill="white"/>
</clipPath>
</defs>
</svg>
