<svg width="40" height="12" viewBox="0 0 40 12" fill="none" xmlns="http://www.w3.org/2000/svg">
<path d="M17.3341 11.8273H14.0938L16.1205 0.210938H19.3606L17.3341 11.8273Z" fill="#00579F"/>
<path d="M29.0794 0.494553C28.4403 0.259513 27.4266 0 26.1731 0C22.9732 0 20.7199 1.58171 20.706 3.84309C20.6795 5.51152 22.3194 6.43821 23.5459 6.99452C24.7995 7.56299 25.2257 7.93403 25.2257 8.44073C25.2129 9.21894 24.2127 9.57766 23.2797 9.57766C21.9861 9.57766 21.2929 9.39272 20.2395 8.95976L19.8128 8.77416L19.3594 11.3818C20.1194 11.7027 21.5195 11.9875 22.9732 12C26.3732 12 28.5866 10.4428 28.6129 8.0329C28.6258 6.71054 27.7599 5.69729 25.893 4.86931C24.7596 4.3378 24.0656 3.97941 24.0656 3.43559C24.0789 2.9412 24.6526 2.43482 25.9319 2.43482C26.9854 2.41002 27.7593 2.64473 28.3457 2.87961L28.6387 3.00296L29.0794 0.494553Z" fill="#00579F"/>
<path d="M33.3844 7.71201C33.6512 7.04466 34.6781 4.46185 34.6781 4.46185C34.6646 4.48666 34.9444 3.78219 35.1044 3.34973L35.3308 4.35066C35.3308 4.35066 35.9444 7.13122 36.0777 7.71201C35.5713 7.71201 34.0244 7.71201 33.3844 7.71201ZM37.3841 0.210938H34.8778C34.1048 0.210938 33.5176 0.420847 33.1842 1.17475L28.3711 11.8271H31.771C31.771 11.8271 32.3308 10.3934 32.4511 10.0846C32.8241 10.0846 36.1316 10.0846 36.6114 10.0846C36.7044 10.4924 36.998 11.8271 36.998 11.8271H39.9982L37.3841 0.210938Z" fill="#00579F"/>
<path d="M11.3868 0.210938L8.21342 8.13215L7.86666 6.52564C7.27998 4.67193 5.44002 2.65791 3.38672 1.65649L6.29337 11.8149H9.71991L14.8131 0.210938H11.3868Z" fill="#00579F"/>
<path d="M5.26667 0.210938H0.0533345L0 0.445648C4.06673 1.40962 6.76004 3.73325 7.86661 6.52613L6.73329 1.18739C6.5467 0.445484 5.97331 0.235411 5.26667 0.210938Z" fill="#FAA61A"/>
</svg>
