<svg width="20" height="16" viewBox="0 0 20 16" fill="none" xmlns="http://www.w3.org/2000/svg">
<g id="Frame" clip-path="url(#clip0_3607_21871)">
<g id="Group">
<path id="Vector" d="M19.4934 2.69451C19.265 1.74565 18.5943 0.99998 17.7409 0.745981C16.1958 0.285156 9.99687 0.285156 9.99687 0.285156C9.99687 0.285156 3.79806 0.285156 2.25283 0.745981C1.39946 0.99998 0.728828 1.74565 0.50039 2.69451C0.0859376 4.41262 0.0859375 7.99944 0.0859375 7.99944C0.0859375 7.99944 0.0859376 11.5863 0.50039 13.3044C0.728828 14.2533 1.39946 14.9989 2.25283 15.2529C3.79806 15.7137 9.99687 15.7137 9.99687 15.7137C9.99687 15.7137 16.1958 15.7137 17.7409 15.2529C18.5943 14.9989 19.265 14.2533 19.4934 13.3044C19.9079 11.5863 19.9079 7.99944 19.9079 7.99944C19.9079 7.99944 19.9062 4.41262 19.4934 2.69451Z" fill="#FF0000"/>
<path id="Vector_2" d="M8.01562 11.3065L13.1653 8.00094L8.01562 4.69531V11.3065Z" fill="white"/>
</g>
</g>
<defs>
<clipPath id="clip0_3607_21871">
<rect width="19.8219" height="15.4286" fill="white" transform="translate(0.0859375 0.285156)"/>
</clipPath>
</defs>
</svg>
